<svg width="119" height="119" viewBox="0 0 119 119" fill="none" xmlns="http://www.w3.org/2000/svg">
<path d="M86.7708 94.2083H44.625C38.1884 94.2067 31.8791 92.4152 26.402 89.0341C20.925 85.6531 16.496 80.8156 13.61 75.0623C10.724 69.3089 9.49469 62.8664 10.0594 56.4547C10.6242 50.0429 12.9607 43.9145 16.808 38.7542C20.6553 33.5939 25.8617 29.6051 31.8454 27.2335C37.8292 24.8619 44.3545 24.201 50.6923 25.3245C57.0301 26.448 62.9306 29.3117 67.7345 33.5957C72.5384 37.8796 76.0564 43.415 77.8954 49.5833H86.7708C92.6885 49.5833 98.3638 51.9341 102.548 56.1185C106.733 60.3029 109.083 65.9782 109.083 71.8958C109.083 77.8134 106.733 83.4887 102.548 87.6731C98.3638 91.8575 92.6885 94.2083 86.7708 94.2083Z" stroke="white" stroke-width="10" stroke-linecap="round" stroke-linejoin="round"/>
</svg>
