<svg width="17" height="17" viewBox="0 0 17 17" fill="none" xmlns="http://www.w3.org/2000/svg">
<path d="M7.41663 7.83325V11.8333" stroke="#DE686D" stroke-linecap="round" stroke-linejoin="round"/>
<path d="M10.0834 7.83325V11.8333" stroke="#DE686D" stroke-linecap="round" stroke-linejoin="round"/>
<path d="M13.4167 4.5V13.8333C13.4167 14.187 13.2762 14.5261 13.0262 14.7761C12.7761 15.0262 12.437 15.1667 12.0834 15.1667H5.41671C5.06309 15.1667 4.72395 15.0262 4.4739 14.7761C4.22385 14.5261 4.08337 14.187 4.08337 13.8333V4.5" stroke="#DE686D" stroke-linecap="round" stroke-linejoin="round"/>
<path d="M2.75 4.5H14.75" stroke="#DE686D" stroke-linecap="round" stroke-linejoin="round"/>
<path d="M6.08337 4.49992V3.16659C6.08337 2.81296 6.22385 2.47382 6.4739 2.22378C6.72395 1.97373 7.06309 1.83325 7.41671 1.83325H10.0834C10.437 1.83325 10.7761 1.97373 11.0262 2.22378C11.2762 2.47382 11.4167 2.81296 11.4167 3.16659V4.49992" stroke="#DE686D" stroke-linecap="round" stroke-linejoin="round"/>
</svg>
