<svg width="695" height="24" viewBox="0 0 695 24" fill="none" xmlns="http://www.w3.org/2000/svg">
<path d="M6.144 18.24C5.36533 18.24 4.656 18.112 4.016 17.856C3.376 17.6 2.82667 17.2267 2.368 16.736C1.90933 16.2453 1.552 15.6427 1.296 14.928C1.05067 14.2027 0.928 13.376 0.928 12.448C0.928 11.52 1.06667 10.6987 1.344 9.984C1.632 9.25867 2.016 8.65067 2.496 8.16C2.976 7.66933 3.536 7.296 4.176 7.04C4.816 6.784 5.49867 6.656 6.224 6.656C6.68267 6.656 7.09333 6.688 7.456 6.752C7.82933 6.816 8.14933 6.89067 8.416 6.976C8.69333 7.06133 8.91733 7.14667 9.088 7.232C9.25867 7.31733 9.376 7.38133 9.44 7.424L8.992 8.704C8.896 8.64 8.75733 8.57067 8.576 8.496C8.39467 8.42133 8.18667 8.34667 7.952 8.272C7.728 8.19733 7.47733 8.13867 7.2 8.096C6.93333 8.04267 6.66133 8.016 6.384 8.016C5.79733 8.016 5.26933 8.11733 4.8 8.32C4.33067 8.52267 3.93067 8.816 3.6 9.2C3.26933 9.584 3.01333 10.0533 2.832 10.608C2.66133 11.152 2.576 11.7653 2.576 12.448C2.576 13.1093 2.65067 13.712 2.8 14.256C2.96 14.8 3.19467 15.2693 3.504 15.664C3.81333 16.048 4.19733 16.3467 4.656 16.56C5.12533 16.7733 5.66933 16.88 6.288 16.88C7.00267 16.88 7.59467 16.8053 8.064 16.656C8.53333 16.5067 8.88533 16.3733 9.12 16.256L9.52 17.536C9.44533 17.5893 9.312 17.6587 9.12 17.744C8.928 17.8187 8.688 17.8933 8.4 17.968C8.112 18.0427 7.776 18.1067 7.392 18.16C7.008 18.2133 6.592 18.24 6.144 18.24ZM18.3115 13.84C18.3115 14.5013 18.2155 15.0987 18.0235 15.632C17.8315 16.1653 17.5595 16.624 17.2075 17.008C16.8662 17.392 16.4555 17.6907 15.9755 17.904C15.4955 18.1067 14.9728 18.208 14.4075 18.208C13.8422 18.208 13.3195 18.1067 12.8395 17.904C12.3595 17.6907 11.9435 17.392 11.5915 17.008C11.2502 16.624 10.9835 16.1653 10.7915 15.632C10.5995 15.0987 10.5035 14.5013 10.5035 13.84C10.5035 13.1893 10.5995 12.5973 10.7915 12.064C10.9835 11.52 11.2502 11.056 11.5915 10.672C11.9435 10.288 12.3595 9.99467 12.8395 9.792C13.3195 9.57867 13.8422 9.472 14.4075 9.472C14.9728 9.472 15.4955 9.57867 15.9755 9.792C16.4555 9.99467 16.8662 10.288 17.2075 10.672C17.5595 11.056 17.8315 11.52 18.0235 12.064C18.2155 12.5973 18.3115 13.1893 18.3115 13.84ZM16.7595 13.84C16.7595 12.9013 16.5462 12.16 16.1195 11.616C15.7035 11.0613 15.1328 10.784 14.4075 10.784C13.6822 10.784 13.1062 11.0613 12.6795 11.616C12.2635 12.16 12.0555 12.9013 12.0555 13.84C12.0555 14.7787 12.2635 15.5253 12.6795 16.08C13.1062 16.624 13.6822 16.896 14.4075 16.896C15.1328 16.896 15.7035 16.624 16.1195 16.08C16.5462 15.5253 16.7595 14.7787 16.7595 13.84ZM20.405 9.92C20.7463 9.83467 21.1997 9.744 21.765 9.648C22.3303 9.552 22.981 9.504 23.717 9.504C24.3783 9.504 24.9277 9.6 25.365 9.792C25.8023 9.97333 26.149 10.2347 26.405 10.576C26.6717 10.9067 26.8583 11.3067 26.965 11.776C27.0717 12.2453 27.125 12.7627 27.125 13.328V18H25.637V13.648C25.637 13.136 25.5997 12.6987 25.525 12.336C25.461 11.9733 25.349 11.68 25.189 11.456C25.029 11.232 24.8157 11.072 24.549 10.976C24.2823 10.8693 23.9517 10.816 23.557 10.816C23.397 10.816 23.2317 10.8213 23.061 10.832C22.8903 10.8427 22.725 10.8587 22.565 10.88C22.4157 10.8907 22.277 10.9067 22.149 10.928C22.0317 10.9493 21.9463 10.9653 21.893 10.976V18H20.405V9.92ZM32.8405 5.584C33.2138 5.584 33.5338 5.61067 33.8005 5.664C34.0672 5.70667 34.2592 5.74933 34.3765 5.792L34.1685 7.072C34.0512 7.02933 33.8912 6.98667 33.6885 6.944C33.4858 6.89067 33.2405 6.864 32.9525 6.864C32.2592 6.864 31.7738 7.056 31.4965 7.44C31.2192 7.81333 31.0805 8.32 31.0805 8.96V9.68H34.2805V10.928H31.0805V18H29.5925V8.928C29.5925 7.86133 29.8538 7.04 30.3765 6.464C30.8992 5.87733 31.7205 5.584 32.8405 5.584ZM37.3205 18H35.8325V9.68H37.3205V18ZM36.5685 8.176C36.3018 8.176 36.0725 8.09067 35.8805 7.92C35.6992 7.73867 35.6085 7.49867 35.6085 7.2C35.6085 6.90133 35.6992 6.66667 35.8805 6.496C36.0725 6.31467 36.3018 6.224 36.5685 6.224C36.8352 6.224 37.0592 6.31467 37.2405 6.496C37.4325 6.66667 37.5285 6.90133 37.5285 7.2C37.5285 7.49867 37.4325 7.73867 37.2405 7.92C37.0592 8.09067 36.8352 8.176 36.5685 8.176ZM42.9458 9.504C43.0738 9.504 43.2178 9.51467 43.3778 9.536C43.5484 9.54667 43.7138 9.568 43.8738 9.6C44.0338 9.62133 44.1778 9.648 44.3058 9.68C44.4444 9.70133 44.5458 9.72267 44.6098 9.744L44.3538 11.04C44.2364 10.9973 44.0391 10.9493 43.7618 10.896C43.4951 10.832 43.1484 10.8 42.7218 10.8C42.4444 10.8 42.1671 10.832 41.8898 10.896C41.6231 10.9493 41.4471 10.9867 41.3618 11.008V18H39.8738V10.032C40.2258 9.904 40.6631 9.78667 41.1858 9.68C41.7084 9.56267 42.2951 9.504 42.9458 9.504ZM46.0456 9.92C46.387 9.83467 46.835 9.744 47.3896 9.648C47.955 9.552 48.6056 9.504 49.3416 9.504C49.875 9.504 50.323 9.57867 50.6856 9.728C51.0483 9.86667 51.3523 10.0747 51.5976 10.352C51.6723 10.2987 51.7896 10.224 51.9496 10.128C52.1096 10.032 52.307 9.94133 52.5416 9.856C52.7763 9.76 53.0376 9.68 53.3256 9.616C53.6136 9.54133 53.923 9.504 54.2536 9.504C54.8936 9.504 55.4163 9.6 55.8216 9.792C56.227 9.97333 56.5416 10.2347 56.7656 10.576C57.0003 10.9173 57.155 11.3227 57.2296 11.792C57.315 12.2613 57.3576 12.7733 57.3576 13.328V18H55.8696V13.648C55.8696 13.1573 55.843 12.736 55.7896 12.384C55.747 12.032 55.6563 11.7387 55.5176 11.504C55.3896 11.2693 55.2083 11.0987 54.9736 10.992C54.7496 10.8747 54.4563 10.816 54.0936 10.816C53.5923 10.816 53.1763 10.8853 52.8456 11.024C52.5256 11.152 52.307 11.2693 52.1896 11.376C52.275 11.6533 52.339 11.9573 52.3816 12.288C52.4243 12.6187 52.4456 12.9653 52.4456 13.328V18H50.9576V13.648C50.9576 13.1573 50.931 12.736 50.8776 12.384C50.8243 12.032 50.7283 11.7387 50.5896 11.504C50.4616 11.2693 50.2803 11.0987 50.0456 10.992C49.8216 10.8747 49.5336 10.816 49.1816 10.816C49.0323 10.816 48.8723 10.8213 48.7016 10.832C48.531 10.8427 48.3656 10.8587 48.2056 10.88C48.0563 10.8907 47.9176 10.9067 47.7896 10.928C47.6616 10.9493 47.5763 10.9653 47.5336 10.976V18H46.0456V9.92ZM62.554 19.552C62.6713 19.6053 62.8207 19.6533 63.002 19.696C63.194 19.7493 63.3807 19.776 63.562 19.776C64.1487 19.776 64.6073 19.6427 64.938 19.376C65.2687 19.12 65.5673 18.6987 65.834 18.112C65.162 16.832 64.5327 15.4773 63.946 14.048C63.37 12.608 62.89 11.152 62.506 9.68H64.106C64.2233 10.16 64.362 10.6773 64.522 11.232C64.6927 11.7867 64.8793 12.3573 65.082 12.944C65.2847 13.5307 65.5033 14.1173 65.738 14.704C65.9727 15.2907 66.218 15.856 66.474 16.4C66.8793 15.28 67.2313 14.1707 67.53 13.072C67.8287 11.9733 68.1113 10.8427 68.378 9.68H69.914C69.53 11.248 69.1033 12.7573 68.634 14.208C68.1647 15.648 67.658 16.9973 67.114 18.256C66.9007 18.736 66.6767 19.1467 66.442 19.488C66.218 19.84 65.9673 20.128 65.69 20.352C65.4127 20.576 65.098 20.7413 64.746 20.848C64.4047 20.9547 64.0153 21.008 63.578 21.008C63.4607 21.008 63.338 20.9973 63.21 20.976C63.082 20.9653 62.954 20.944 62.826 20.912C62.7087 20.8907 62.5967 20.864 62.49 20.832C62.394 20.8 62.3247 20.7733 62.282 20.752L62.554 19.552ZM78.8271 13.84C78.8271 14.5013 78.7311 15.0987 78.5391 15.632C78.3471 16.1653 78.0751 16.624 77.7231 17.008C77.3818 17.392 76.9711 17.6907 76.4911 17.904C76.0111 18.1067 75.4885 18.208 74.9231 18.208C74.3578 18.208 73.8351 18.1067 73.3551 17.904C72.8751 17.6907 72.4591 17.392 72.1071 17.008C71.7658 16.624 71.4991 16.1653 71.3071 15.632C71.1151 15.0987 71.0191 14.5013 71.0191 13.84C71.0191 13.1893 71.1151 12.5973 71.3071 12.064C71.4991 11.52 71.7658 11.056 72.1071 10.672C72.4591 10.288 72.8751 9.99467 73.3551 9.792C73.8351 9.57867 74.3578 9.472 74.9231 9.472C75.4885 9.472 76.0111 9.57867 76.4911 9.792C76.9711 9.99467 77.3818 10.288 77.7231 10.672C78.0751 11.056 78.3471 11.52 78.5391 12.064C78.7311 12.5973 78.8271 13.1893 78.8271 13.84ZM77.2751 13.84C77.2751 12.9013 77.0618 12.16 76.6351 11.616C76.2191 11.0613 75.6485 10.784 74.9231 10.784C74.1978 10.784 73.6218 11.0613 73.1951 11.616C72.7791 12.16 72.5711 12.9013 72.5711 13.84C72.5711 14.7787 72.7791 15.5253 73.1951 16.08C73.6218 16.624 74.1978 16.896 74.9231 16.896C75.6485 16.896 76.2191 16.624 76.6351 16.08C77.0618 15.5253 77.2751 14.7787 77.2751 13.84ZM87.5446 17.76C87.2033 17.8453 86.75 17.936 86.1846 18.032C85.63 18.128 84.9846 18.176 84.2486 18.176C83.6086 18.176 83.07 18.0853 82.6326 17.904C82.1953 17.712 81.8433 17.4453 81.5766 17.104C81.31 16.7627 81.118 16.3627 81.0006 15.904C80.8833 15.4347 80.8246 14.9173 80.8246 14.352V9.68H82.3126V14.032C82.3126 15.0453 82.4726 15.7707 82.7926 16.208C83.1126 16.6453 83.6513 16.864 84.4086 16.864C84.5686 16.864 84.734 16.8587 84.9046 16.848C85.0753 16.8373 85.2353 16.8267 85.3846 16.816C85.534 16.7947 85.6673 16.7787 85.7846 16.768C85.9126 16.7467 86.0033 16.7253 86.0566 16.704V9.68H87.5446V17.76ZM93.1801 9.504C93.3081 9.504 93.4521 9.51467 93.6121 9.536C93.7828 9.54667 93.9481 9.568 94.1081 9.6C94.2681 9.62133 94.4121 9.648 94.5401 9.68C94.6788 9.70133 94.7801 9.72267 94.8441 9.744L94.5881 11.04C94.4708 10.9973 94.2735 10.9493 93.9961 10.896C93.7295 10.832 93.3828 10.8 92.9561 10.8C92.6788 10.8 92.4015 10.832 92.1241 10.896C91.8575 10.9493 91.6815 10.9867 91.5961 11.008V18H90.1081V10.032C90.4601 9.904 90.8975 9.78667 91.4201 9.68C91.9428 9.56267 92.5295 9.504 93.1801 9.504ZM105.759 13.856C105.759 12.8853 105.519 12.1387 105.039 11.616C104.559 11.0933 103.919 10.832 103.119 10.832C102.671 10.832 102.319 10.848 102.063 10.88C101.818 10.912 101.62 10.9493 101.471 10.992V16.24C101.652 16.3893 101.914 16.5333 102.255 16.672C102.596 16.8107 102.97 16.88 103.375 16.88C103.802 16.88 104.164 16.8053 104.463 16.656C104.772 16.496 105.023 16.2827 105.215 16.016C105.407 15.7387 105.546 15.4187 105.631 15.056C105.716 14.6827 105.759 14.2827 105.759 13.856ZM107.311 13.856C107.311 14.4853 107.226 15.0667 107.055 15.6C106.895 16.1333 106.655 16.592 106.335 16.976C106.015 17.36 105.62 17.6587 105.151 17.872C104.692 18.0853 104.164 18.192 103.567 18.192C103.087 18.192 102.66 18.128 102.287 18C101.924 17.872 101.652 17.7493 101.471 17.632V20.96H99.9831V9.936C100.335 9.85067 100.772 9.76 101.295 9.664C101.828 9.55733 102.442 9.504 103.135 9.504C103.775 9.504 104.351 9.60533 104.863 9.808C105.375 10.0107 105.812 10.2987 106.175 10.672C106.538 11.0453 106.815 11.504 107.007 12.048C107.21 12.5813 107.311 13.184 107.311 13.856ZM112.221 16.928C112.573 16.928 112.882 16.9227 113.149 16.912C113.426 16.8907 113.656 16.8587 113.837 16.816V14.336C113.73 14.2827 113.554 14.24 113.309 14.208C113.074 14.1653 112.786 14.144 112.445 14.144C112.221 14.144 111.981 14.16 111.725 14.192C111.48 14.224 111.25 14.2933 111.037 14.4C110.834 14.496 110.664 14.6347 110.525 14.816C110.386 14.9867 110.317 15.216 110.317 15.504C110.317 16.0373 110.488 16.4107 110.829 16.624C111.17 16.8267 111.634 16.928 112.221 16.928ZM112.093 9.472C112.69 9.472 113.192 9.552 113.597 9.712C114.013 9.86133 114.344 10.08 114.589 10.368C114.845 10.6453 115.026 10.9813 115.133 11.376C115.24 11.76 115.293 12.1867 115.293 12.656V17.856C115.165 17.8773 114.984 17.9093 114.749 17.952C114.525 17.984 114.269 18.016 113.981 18.048C113.693 18.08 113.378 18.1067 113.037 18.128C112.706 18.16 112.376 18.176 112.045 18.176C111.576 18.176 111.144 18.128 110.749 18.032C110.354 17.936 110.013 17.7867 109.725 17.584C109.437 17.3707 109.213 17.0933 109.053 16.752C108.893 16.4107 108.813 16 108.813 15.52C108.813 15.0613 108.904 14.6667 109.085 14.336C109.277 14.0053 109.533 13.7387 109.853 13.536C110.173 13.3333 110.546 13.184 110.973 13.088C111.4 12.992 111.848 12.944 112.317 12.944C112.466 12.944 112.621 12.9547 112.781 12.976C112.941 12.9867 113.09 13.008 113.229 13.04C113.378 13.0613 113.506 13.0827 113.613 13.104C113.72 13.1253 113.794 13.1413 113.837 13.152V12.736C113.837 12.4907 113.81 12.2507 113.757 12.016C113.704 11.7707 113.608 11.5573 113.469 11.376C113.33 11.184 113.138 11.0347 112.893 10.928C112.658 10.8107 112.349 10.752 111.965 10.752C111.474 10.752 111.042 10.7893 110.669 10.864C110.306 10.928 110.034 10.9973 109.853 11.072L109.677 9.84C109.869 9.75467 110.189 9.67467 110.637 9.6C111.085 9.51467 111.57 9.472 112.093 9.472ZM119.7 16.928C120.308 16.928 120.756 16.848 121.044 16.688C121.343 16.528 121.492 16.272 121.492 15.92C121.492 15.5573 121.348 15.2693 121.06 15.056C120.772 14.8427 120.298 14.6027 119.636 14.336C119.316 14.208 119.007 14.08 118.708 13.952C118.42 13.8133 118.17 13.6533 117.956 13.472C117.743 13.2907 117.572 13.072 117.444 12.816C117.316 12.56 117.252 12.2453 117.252 11.872C117.252 11.136 117.524 10.5547 118.068 10.128C118.612 9.69067 119.354 9.472 120.292 9.472C120.527 9.472 120.762 9.488 120.996 9.52C121.231 9.54133 121.45 9.57333 121.652 9.616C121.855 9.648 122.031 9.68533 122.18 9.728C122.34 9.77067 122.463 9.808 122.548 9.84L122.276 11.12C122.116 11.0347 121.866 10.9493 121.524 10.864C121.183 10.768 120.772 10.72 120.292 10.72C119.876 10.72 119.514 10.8053 119.204 10.976C118.895 11.136 118.74 11.392 118.74 11.744C118.74 11.9253 118.772 12.0853 118.836 12.224C118.911 12.3627 119.018 12.4907 119.156 12.608C119.306 12.7147 119.487 12.816 119.7 12.912C119.914 13.008 120.17 13.1093 120.468 13.216C120.863 13.3653 121.215 13.5147 121.524 13.664C121.834 13.8027 122.095 13.968 122.308 14.16C122.532 14.352 122.703 14.5867 122.82 14.864C122.938 15.1307 122.996 15.4613 122.996 15.856C122.996 16.624 122.708 17.2053 122.132 17.6C121.567 17.9947 120.756 18.192 119.7 18.192C118.964 18.192 118.388 18.128 117.972 18C117.556 17.8827 117.274 17.792 117.124 17.728L117.396 16.448C117.567 16.512 117.839 16.608 118.212 16.736C118.586 16.864 119.082 16.928 119.7 16.928ZM126.841 16.928C127.449 16.928 127.897 16.848 128.185 16.688C128.484 16.528 128.633 16.272 128.633 15.92C128.633 15.5573 128.489 15.2693 128.201 15.056C127.913 14.8427 127.438 14.6027 126.777 14.336C126.457 14.208 126.148 14.08 125.849 13.952C125.561 13.8133 125.31 13.6533 125.097 13.472C124.884 13.2907 124.713 13.072 124.585 12.816C124.457 12.56 124.393 12.2453 124.393 11.872C124.393 11.136 124.665 10.5547 125.209 10.128C125.753 9.69067 126.494 9.472 127.433 9.472C127.668 9.472 127.902 9.488 128.137 9.52C128.372 9.54133 128.59 9.57333 128.793 9.616C128.996 9.648 129.172 9.68533 129.321 9.728C129.481 9.77067 129.604 9.808 129.689 9.84L129.417 11.12C129.257 11.0347 129.006 10.9493 128.665 10.864C128.324 10.768 127.913 10.72 127.433 10.72C127.017 10.72 126.654 10.8053 126.345 10.976C126.036 11.136 125.881 11.392 125.881 11.744C125.881 11.9253 125.913 12.0853 125.977 12.224C126.052 12.3627 126.158 12.4907 126.297 12.608C126.446 12.7147 126.628 12.816 126.841 12.912C127.054 13.008 127.31 13.1093 127.609 13.216C128.004 13.3653 128.356 13.5147 128.665 13.664C128.974 13.8027 129.236 13.968 129.449 14.16C129.673 14.352 129.844 14.5867 129.961 14.864C130.078 15.1307 130.137 15.4613 130.137 15.856C130.137 16.624 129.849 17.2053 129.273 17.6C128.708 17.9947 127.897 18.192 126.841 18.192C126.105 18.192 125.529 18.128 125.113 18C124.697 17.8827 124.414 17.792 124.265 17.728L124.537 16.448C124.708 16.512 124.98 16.608 125.353 16.736C125.726 16.864 126.222 16.928 126.841 16.928ZM138.846 18C138.547 17.232 138.227 16.3573 137.886 15.376C137.555 14.384 137.251 13.3547 136.974 12.288C136.696 13.3547 136.392 14.384 136.062 15.376C135.731 16.3573 135.416 17.232 135.118 18H133.822C133.331 16.9013 132.851 15.648 132.382 14.24C131.912 12.832 131.47 11.312 131.054 9.68H132.654C132.76 10.1813 132.888 10.7253 133.038 11.312C133.187 11.8987 133.342 12.4853 133.502 13.072C133.672 13.6587 133.848 14.224 134.03 14.768C134.211 15.312 134.382 15.7867 134.542 16.192C134.723 15.6907 134.899 15.1627 135.07 14.608C135.251 14.0427 135.422 13.4773 135.582 12.912C135.742 12.336 135.891 11.776 136.03 11.232C136.179 10.6773 136.307 10.16 136.414 9.68H137.646C137.742 10.16 137.859 10.6773 137.998 11.232C138.136 11.776 138.286 12.336 138.446 12.912C138.606 13.4773 138.771 14.0427 138.942 14.608C139.123 15.1627 139.304 15.6907 139.486 16.192C139.646 15.7867 139.811 15.312 139.982 14.768C140.163 14.224 140.339 13.6587 140.51 13.072C140.68 12.4853 140.84 11.8987 140.99 11.312C141.139 10.7253 141.267 10.1813 141.374 9.68H142.91C142.494 11.312 142.051 12.832 141.582 14.24C141.112 15.648 140.632 16.9013 140.142 18H138.846ZM151.64 13.84C151.64 14.5013 151.544 15.0987 151.352 15.632C151.16 16.1653 150.888 16.624 150.536 17.008C150.194 17.392 149.784 17.6907 149.304 17.904C148.824 18.1067 148.301 18.208 147.736 18.208C147.17 18.208 146.648 18.1067 146.168 17.904C145.688 17.6907 145.272 17.392 144.92 17.008C144.578 16.624 144.312 16.1653 144.12 15.632C143.928 15.0987 143.832 14.5013 143.832 13.84C143.832 13.1893 143.928 12.5973 144.12 12.064C144.312 11.52 144.578 11.056 144.92 10.672C145.272 10.288 145.688 9.99467 146.168 9.792C146.648 9.57867 147.17 9.472 147.736 9.472C148.301 9.472 148.824 9.57867 149.304 9.792C149.784 9.99467 150.194 10.288 150.536 10.672C150.888 11.056 151.16 11.52 151.352 12.064C151.544 12.5973 151.64 13.1893 151.64 13.84ZM150.088 13.84C150.088 12.9013 149.874 12.16 149.448 11.616C149.032 11.0613 148.461 10.784 147.736 10.784C147.01 10.784 146.434 11.0613 146.008 11.616C145.592 12.16 145.384 12.9013 145.384 13.84C145.384 14.7787 145.592 15.5253 146.008 16.08C146.434 16.624 147.01 16.896 147.736 16.896C148.461 16.896 149.032 16.624 149.448 16.08C149.874 15.5253 150.088 14.7787 150.088 13.84ZM156.805 9.504C156.933 9.504 157.077 9.51467 157.237 9.536C157.408 9.54667 157.573 9.568 157.733 9.6C157.893 9.62133 158.037 9.648 158.165 9.68C158.304 9.70133 158.405 9.72267 158.469 9.744L158.213 11.04C158.096 10.9973 157.898 10.9493 157.621 10.896C157.354 10.832 157.008 10.8 156.581 10.8C156.304 10.8 156.026 10.832 155.749 10.896C155.482 10.9493 155.306 10.9867 155.221 11.008V18H153.733V10.032C154.085 9.904 154.522 9.78667 155.045 9.68C155.568 9.56267 156.154 9.504 156.805 9.504ZM165.281 11.44C165.1 11.2907 164.838 11.1467 164.497 11.008C164.156 10.8693 163.782 10.8 163.377 10.8C162.95 10.8 162.582 10.88 162.273 11.04C161.974 11.1893 161.729 11.4027 161.537 11.68C161.345 11.9467 161.206 12.2667 161.121 12.64C161.036 13.0133 160.993 13.4133 160.993 13.84C160.993 14.8107 161.233 15.5627 161.713 16.096C162.193 16.6187 162.833 16.88 163.633 16.88C164.038 16.88 164.374 16.864 164.641 16.832C164.918 16.7893 165.132 16.7467 165.281 16.704V11.44ZM165.281 5.84L166.769 5.584V17.76C166.428 17.856 165.99 17.952 165.457 18.048C164.924 18.144 164.31 18.192 163.617 18.192C162.977 18.192 162.401 18.0907 161.889 17.888C161.377 17.6853 160.94 17.3973 160.577 17.024C160.214 16.6507 159.932 16.1973 159.729 15.664C159.537 15.12 159.441 14.512 159.441 13.84C159.441 13.2 159.521 12.6133 159.681 12.08C159.852 11.5467 160.097 11.088 160.417 10.704C160.737 10.32 161.126 10.0213 161.585 9.808C162.054 9.59467 162.588 9.488 163.185 9.488C163.665 9.488 164.086 9.552 164.449 9.68C164.822 9.808 165.1 9.93067 165.281 10.048V5.84Z" fill="white"/>
<path d="M673.062 12.3481C672.979 12.1236 672.979 11.8766 673.062 11.6521C673.874 9.68397 675.252 8.00116 677.021 6.81701C678.79 5.63287 680.871 5.00073 683 5.00073C685.129 5.00073 687.21 5.63287 688.979 6.81701C690.749 8.00116 692.126 9.68397 692.938 11.6521C693.021 11.8766 693.021 12.1236 692.938 12.3481C692.126 14.3163 690.749 15.9991 688.979 17.1832C687.21 18.3674 685.129 18.9995 683 18.9995C680.871 18.9995 678.79 18.3674 677.021 17.1832C675.252 15.9991 673.874 14.3163 673.062 12.3481Z" stroke="white" stroke-linecap="round" stroke-linejoin="round"/>
<path d="M683 15C684.657 15 686 13.6569 686 12C686 10.3431 684.657 9 683 9C681.343 9 680 10.3431 680 12C680 13.6569 681.343 15 683 15Z" stroke="white" stroke-linecap="round" stroke-linejoin="round"/>
</svg>
