<svg width="1634" height="1080" viewBox="0 0 1634 1080" fill="none" xmlns="http://www.w3.org/2000/svg">
<g clip-path="url(#clip0_47_1037)">
<rect width="1634" height="1080" fill="#141B41"/>
<g clip-path="url(#clip1_47_1037)">
<path d="M0 239.309L148.649 178.009L297.297 214.335L445.946 104.222L594.594 79.2482L743.243 116.709L890.757 165.522L1039.41 116.709L1188.05 91.7352L1336.7 214.335L1485.35 250.661L1634 91.7352V-32H1485.35H1336.7H1188.05H1039.41H890.757H743.243H594.594H445.946H297.297H148.649H0V239.309Z" fill="#141B41"/>
<path d="M0 545.809L148.649 557.161L297.297 472.022L445.946 423.209L594.594 434.561H743.243L890.757 373.261L1039.41 472.022L1188.05 361.909L1336.7 704.735L1485.35 668.409L1634 520.835V89.4648L1485.35 248.391L1336.7 212.065L1188.05 89.4648L1039.41 114.439L890.757 163.252L743.243 114.439L594.594 76.9778L445.946 101.952L297.297 212.065L148.649 175.739L0 237.039V545.809Z" fill="#1E2349"/>
<path d="M0 766.035L148.649 753.548L297.297 704.735L445.946 814.848L594.594 791.009L743.243 827.335L890.757 643.435L1039.41 778.522L1188.05 741.061L1336.7 913.609L1485.35 852.309L1634 778.522V518.565L1485.35 666.139L1336.7 702.465L1188.05 359.639L1039.41 469.752L890.757 370.991L743.243 432.291H594.594L445.946 420.939L297.297 469.752L148.649 554.891L0 543.539V766.035Z" fill="#272B52"/>
<path d="M0 839.822L148.649 937.448L297.297 827.335L445.946 888.635L594.594 913.609L743.243 901.122L890.757 839.822L1039.41 863.661L1188.05 802.361L1336.7 986.261L1485.35 924.961L1634 888.635V776.252L1485.35 850.039L1336.7 911.339L1188.05 738.791L1039.41 776.252L890.757 641.165L743.243 825.065L594.594 788.739L445.946 812.578L297.297 702.465L148.649 751.278L0 763.765V839.822Z" fill="#30335A"/>
<path d="M0 974.909L148.649 1072.54L297.297 949.935L445.946 986.261L594.594 1023.72L743.243 974.909L890.757 998.748L1039.41 962.422H1188.05L1336.7 1047.56L1485.35 986.261L1634 1023.72V886.365L1485.35 922.691L1336.7 983.991L1188.05 800.091L1039.41 861.391L890.757 837.552L743.243 898.852L594.594 911.339L445.946 886.365L297.297 825.065L148.649 935.178L0 837.552V974.909Z" fill="#393B63"/>
<path d="M0 1097.51L148.649 1133.84L297.297 1097.51L445.946 1133.84L594.594 1121.35L743.243 1097.51L890.757 1133.84L1039.41 1085.02L1188.05 1108.86L1336.7 1121.35L1485.35 1072.54L1634 1085.02V1021.45L1485.35 983.991L1336.7 1045.29L1188.05 960.152H1039.41L890.757 996.478L743.243 972.639L594.594 1021.45L445.946 983.991L297.297 947.665L148.649 1070.26L0 972.639V1097.51Z" fill="#43446B"/>
<path d="M0 1195.14H148.649H297.297H445.946H594.594H743.243H890.757H1039.41H1188.05H1336.7H1485.35H1634V1082.75L1485.35 1070.26L1336.7 1119.08L1188.05 1106.59L1039.41 1082.75L890.757 1131.56L743.243 1095.24L594.594 1119.08L445.946 1131.56L297.297 1095.24L148.649 1131.56L0 1095.24V1195.14Z" fill="#4C4D74"/>
</g>
</g>
<defs>
<clipPath id="clip0_47_1037">
<rect width="1634" height="1080" fill="white"/>
</clipPath>
<clipPath id="clip1_47_1037">
<rect width="1634" height="1226" fill="white" transform="translate(0 -32)"/>
</clipPath>
</defs>
</svg>
