<svg width="16" height="16" viewBox="0 0 16 16" fill="none" xmlns="http://www.w3.org/2000/svg">
<path d="M6.44735 2.75735C6.48409 2.37091 6.66358 2.01205 6.95075 1.75087C7.23793 1.4897 7.61217 1.34497 8.00035 1.34497C8.38854 1.34497 8.76277 1.4897 9.04995 1.75087C9.33713 2.01205 9.51662 2.37091 9.55335 2.75735C9.57543 3.00699 9.65733 3.24763 9.79211 3.45891C9.92689 3.67019 10.1106 3.84589 10.3277 3.97114C10.5447 4.09638 10.7888 4.16749 11.0392 4.17843C11.2895 4.18938 11.5388 4.13984 11.766 4.03402C12.1188 3.87387 12.5185 3.8507 12.8874 3.96901C13.2562 4.08732 13.5679 4.33865 13.7617 4.67409C13.9555 5.00953 14.0175 5.40507 13.9358 5.78373C13.854 6.1624 13.6343 6.4971 13.3194 6.72269C13.1143 6.86658 12.9469 7.05776 12.8313 7.28004C12.7157 7.50231 12.6554 7.74916 12.6554 7.99969C12.6554 8.25021 12.7157 8.49706 12.8313 8.71934C12.9469 8.94161 13.1143 9.13279 13.3194 9.27669C13.6343 9.50228 13.854 9.83697 13.9358 10.2156C14.0175 10.5943 13.9555 10.9898 13.7617 11.3253C13.5679 11.6607 13.2562 11.9121 12.8874 12.0304C12.5185 12.1487 12.1188 12.1255 11.766 11.9654C11.5388 11.8595 11.2895 11.81 11.0392 11.8209C10.7888 11.8319 10.5447 11.903 10.3277 12.0282C10.1106 12.1535 9.92689 12.3292 9.79211 12.5405C9.65733 12.7517 9.57543 12.9924 9.55335 13.242C9.51662 13.6285 9.33713 13.9873 9.04995 14.2485C8.76277 14.5097 8.38854 14.6544 8.00035 14.6544C7.61217 14.6544 7.23793 14.5097 6.95075 14.2485C6.66358 13.9873 6.48409 13.6285 6.44735 13.242C6.42532 12.9923 6.34342 12.7516 6.2086 12.5402C6.07378 12.3288 5.89 12.1531 5.67284 12.0278C5.45568 11.9026 5.21153 11.8315 4.96107 11.8206C4.71061 11.8097 4.46122 11.8594 4.23402 11.9654C3.88128 12.1255 3.48157 12.1487 3.11269 12.0304C2.7438 11.9121 2.43213 11.6607 2.23834 11.3253C2.04455 10.9898 1.9825 10.5943 2.06426 10.2156C2.14602 9.83697 2.36575 9.50228 2.68069 9.27669C2.88577 9.13279 3.05317 8.94161 3.16875 8.71934C3.28432 8.49706 3.34466 8.25021 3.34466 7.99969C3.34466 7.74916 3.28432 7.50231 3.16875 7.28004C3.05317 7.05776 2.88577 6.86658 2.68069 6.72269C2.3662 6.49698 2.14685 6.16242 2.06529 5.78401C1.98372 5.4056 2.04576 5.01038 2.23934 4.67516C2.43293 4.33994 2.74423 4.08867 3.11275 3.97018C3.48127 3.85169 3.88068 3.87444 4.23335 4.03402C4.46053 4.13984 4.70985 4.18938 4.96022 4.17843C5.21059 4.16749 5.45464 4.09638 5.67171 3.97114C5.88878 3.84589 6.07248 3.67019 6.20726 3.45891C6.34205 3.24763 6.42394 3.00699 6.44602 2.75735" stroke="white" stroke-linecap="round" stroke-linejoin="round"/>
<path d="M8 10C9.10457 10 10 9.10457 10 8C10 6.89543 9.10457 6 8 6C6.89543 6 6 6.89543 6 8C6 9.10457 6.89543 10 8 10Z" stroke="white" stroke-linecap="round" stroke-linejoin="round"/>
</svg>
