<svg width="14" height="15" viewBox="0 0 14 15" fill="none" xmlns="http://www.w3.org/2000/svg">
<path d="M7.46669 11.9334C7.61458 12.0443 7.7867 12.1185 7.96889 12.1498C8.15107 12.1812 8.3381 12.1688 8.51455 12.1136C8.691 12.0585 8.85183 11.9623 8.98378 11.8328C9.11573 11.7033 9.21503 11.5443 9.27348 11.369C9.33194 11.1936 9.34789 11.0068 9.32001 10.8241C9.29213 10.6414 9.22123 10.4678 9.11314 10.3179C9.00505 10.1679 8.86287 10.0458 8.69832 9.96154C8.53376 9.8773 8.35155 9.83337 8.16669 9.83337H1.16669" stroke="#D28600" stroke-width="1.5" stroke-linecap="round" stroke-linejoin="round"/>
<path d="M10.2084 5.16671C10.3575 4.96784 10.555 4.8104 10.7821 4.70934C11.0092 4.60828 11.2584 4.56694 11.506 4.58927C11.7536 4.61159 11.9913 4.69683 12.1967 4.83689C12.4021 4.97695 12.5682 5.16718 12.6794 5.38952C12.7906 5.61186 12.8431 5.85893 12.8319 6.10726C12.8207 6.35559 12.7462 6.59694 12.6156 6.8084C12.4849 7.01986 12.3023 7.1944 12.0852 7.31545C11.8681 7.4365 11.6236 7.50004 11.375 7.50004H1.16669" stroke="#D28600" stroke-width="1.5" stroke-linecap="round" stroke-linejoin="round"/>
<path d="M5.71669 3.06671C5.86458 2.95579 6.0367 2.88161 6.21889 2.85026C6.40107 2.81892 6.5881 2.83132 6.76455 2.88644C6.941 2.94156 7.10183 3.03782 7.23378 3.16729C7.36573 3.29676 7.46503 3.45573 7.52348 3.63111C7.58194 3.80648 7.59789 3.99324 7.57001 4.17598C7.54213 4.35873 7.47123 4.53224 7.36314 4.6822C7.25505 4.83217 7.11287 4.9543 6.94831 5.03854C6.78376 5.12278 6.60155 5.16671 6.41669 5.16671H1.16669" stroke="#D28600" stroke-width="1.5" stroke-linecap="round" stroke-linejoin="round"/>
</svg>
