<svg width="1634" height="1080" viewBox="0 0 1634 1080" fill="none" xmlns="http://www.w3.org/2000/svg">
<g clip-path="url(#clip0_76_3)">
<path d="M0 63.2222L24.7369 56.9787C49.5874 50.7352 99.0613 38.2481 148.649 42.2213C198.236 46.1944 247.71 66.6278 297.297 78.8878C346.885 91.2613 396.358 95.348 445.946 85.1313C495.533 74.9146 545.007 50.3946 594.594 52.438C644.182 54.4813 693.656 83.315 743.016 95.575C792.377 107.835 841.623 103.748 890.984 93.5317C940.344 83.315 989.818 66.9683 1039.41 64.925C1088.99 62.8817 1138.47 74.9146 1188.05 81.0446C1237.64 87.0611 1287.12 87.0611 1336.7 83.088C1386.29 79.1148 1435.76 71.1685 1485.35 69.2387C1534.94 67.4224 1584.41 71.5091 1609.26 73.6659L1634 75.7093V-73H1609.26C1584.41 -73 1534.94 -73 1485.35 -73C1435.76 -73 1386.29 -73 1336.7 -73C1287.12 -73 1237.64 -73 1188.05 -73C1138.47 -73 1088.99 -73 1039.41 -73C989.818 -73 940.344 -73 890.984 -73C841.623 -73 792.377 -73 743.016 -73C693.656 -73 644.182 -73 594.594 -73C545.007 -73 495.533 -73 445.946 -73C396.358 -73 346.885 -73 297.297 -73C247.71 -73 198.236 -73 148.649 -73C99.0613 -73 49.5874 -73 24.7369 -73H0V63.2222Z" fill="#0F1631"/>
<path d="M0 137.009L24.7369 128.722C49.5874 120.322 99.0613 103.748 148.649 122.025C198.236 140.415 247.71 193.768 297.297 220.445C346.885 247.122 396.358 247.122 445.946 220.445C495.533 193.768 545.007 140.415 594.594 132.241C644.182 124.182 693.656 161.189 743.016 177.649C792.377 194.109 841.623 190.022 890.984 173.562C940.344 157.102 989.818 128.268 1039.41 134.398C1088.99 140.415 1138.47 181.281 1188.05 199.671C1237.64 217.948 1287.12 213.861 1336.7 211.704C1386.29 209.661 1435.76 209.661 1485.35 203.645C1534.94 197.515 1584.41 185.482 1609.26 179.352L1634 173.335V73.4388L1609.26 71.3955C1584.41 69.2387 1534.94 65.152 1485.35 66.9683C1435.76 68.8981 1386.29 76.8444 1336.7 80.8175C1287.12 84.7907 1237.64 84.7907 1188.05 78.7742C1138.47 72.6442 1088.99 60.6112 1039.41 62.6546C989.818 64.6979 940.344 81.0446 890.984 91.2612C841.623 101.478 792.377 105.565 743.016 93.3046C693.656 81.0446 644.182 52.2109 594.594 50.1675C545.007 48.1242 495.533 72.6442 445.946 82.8609C396.358 93.0776 346.885 88.9909 297.297 76.6174C247.71 64.3574 198.236 43.924 148.649 39.9509C99.0613 35.9777 49.5874 48.4648 24.7369 54.7083L0 60.9518V137.009Z" fill="#101836"/>
<path d="M0 295.935L24.7369 291.735C49.5874 287.648 99.0613 279.248 148.649 295.595C198.236 311.828 247.71 352.694 297.297 393.561C346.885 434.428 396.358 475.294 445.946 454.861C495.533 434.428 545.007 352.695 594.594 326.245C644.182 299.681 693.656 328.515 743.016 355.192C792.377 381.869 841.623 406.389 890.984 410.589C940.344 414.789 989.818 398.442 1039.41 396.399C1088.99 394.356 1138.47 406.389 1188.05 404.345C1237.64 402.302 1287.12 385.955 1336.7 381.869C1386.29 377.669 1435.76 385.615 1485.35 375.398C1534.94 365.182 1584.41 336.802 1609.26 322.612L1634 308.422V171.065L1609.26 177.081C1584.41 183.211 1534.94 195.244 1485.35 201.374C1435.76 207.391 1386.29 207.391 1336.7 209.434C1287.12 211.591 1237.64 215.678 1188.05 197.401C1138.47 179.011 1088.99 138.144 1039.41 132.128C989.818 125.998 940.344 154.832 890.984 171.292C841.623 187.752 792.377 191.839 743.016 175.379C693.656 158.918 644.182 121.911 594.594 129.971C545.007 138.144 495.533 191.498 445.946 218.175C396.358 244.852 346.885 244.852 297.297 218.175C247.71 191.498 198.236 138.144 148.649 119.754C99.0613 101.478 49.5874 118.052 24.7369 126.452L0 134.739V295.935Z" fill="#12193C"/>
<path d="M0 479.835L24.7369 481.879C49.5874 484.035 99.0613 488.122 148.649 528.989C198.236 569.855 247.71 647.502 297.297 710.845C346.885 774.189 396.358 823.456 445.946 817.326C495.533 811.309 545.007 750.009 594.594 721.289C644.182 692.455 693.656 696.315 743.016 696.315C792.377 696.315 841.623 692.455 890.984 678.266C940.344 664.076 989.818 639.556 1039.41 637.399C1088.99 635.356 1138.47 655.789 1188.05 676.222C1237.64 696.656 1287.12 717.089 1336.7 710.845C1386.29 704.602 1435.76 671.682 1485.35 655.221C1534.94 638.761 1584.41 638.761 1609.26 638.761H1634V306.152L1609.26 320.342C1584.41 334.532 1534.94 362.911 1485.35 373.128C1435.76 383.344 1386.29 375.398 1336.7 379.598C1287.12 383.685 1237.64 400.032 1188.05 402.075C1138.47 404.118 1088.99 392.085 1039.41 394.129C989.818 396.172 940.344 412.519 890.984 408.319C841.623 404.118 792.377 379.598 743.016 352.922C693.656 326.245 644.182 297.411 594.594 323.974C545.007 350.424 495.533 432.157 445.946 452.591C396.358 473.024 346.885 432.157 297.297 391.291C247.71 350.424 198.236 309.557 148.649 293.324C99.0613 276.978 49.5874 285.378 24.7369 289.465L0 293.665V479.835Z" fill="#141B41"/>
<path d="M0 957.748L24.7369 963.992C49.5874 970.235 99.0613 982.722 148.649 978.749C198.236 974.776 247.71 954.343 297.297 960.359C346.885 966.489 396.358 998.956 445.946 992.712C495.533 986.468 545.007 941.515 594.594 914.952C644.182 888.502 693.656 880.556 743.016 888.729C792.377 896.789 841.623 921.082 890.984 933.115C940.344 945.261 989.818 945.261 1039.41 955.478C1088.99 965.695 1138.47 986.128 1188.05 971.938C1237.64 957.748 1287.12 908.935 1336.7 902.919C1386.29 896.789 1435.76 933.569 1485.35 954.002C1534.94 974.436 1584.41 978.522 1609.26 980.679L1634 982.722V636.491H1609.26C1584.41 636.491 1534.94 636.491 1485.35 652.951C1435.76 669.411 1386.29 702.332 1336.7 708.575C1287.12 714.819 1237.64 694.385 1188.05 673.952C1138.47 653.519 1088.99 633.085 1039.41 635.129C989.818 637.285 940.344 661.805 890.984 675.995C841.623 690.185 792.377 694.045 743.016 694.045C693.656 694.045 644.182 690.185 594.594 719.019C545.007 747.739 495.533 809.039 445.946 815.055C396.358 821.186 346.885 771.918 297.297 708.575C247.71 645.232 198.236 567.585 148.649 526.718C99.0613 485.852 49.5874 481.765 24.7369 479.608L0 477.565V957.748Z" fill="#1D2450"/>
<path d="M0 1044.02L24.7369 1052.2C49.5874 1060.26 99.0613 1076.6 148.649 1086.82C198.236 1097.04 247.71 1101.12 297.297 1101.12C346.885 1101.12 396.358 1097.04 445.946 1088.86C495.533 1080.69 545.007 1068.66 594.594 1056.28C644.182 1044.02 693.656 1031.54 743.016 1035.51C792.377 1039.48 841.623 1059.91 890.984 1061.96C940.344 1064.12 989.818 1047.77 1039.41 1045.73C1088.99 1043.68 1138.47 1055.71 1188.05 1053.67C1237.64 1051.63 1287.12 1035.28 1336.7 1041.52C1386.29 1047.77 1435.76 1076.6 1485.35 1082.85C1534.94 1089.09 1584.41 1072.74 1609.26 1064.68L1634 1056.51V980.452L1609.26 978.409C1584.41 976.252 1534.94 972.165 1485.35 951.732C1435.76 931.298 1386.29 894.518 1336.7 900.648C1287.12 906.665 1237.64 955.478 1188.05 969.668C1138.47 983.857 1088.99 963.424 1039.41 953.207C989.818 942.991 940.344 942.991 890.984 930.844C841.623 918.811 792.377 894.518 743.016 886.459C693.656 878.285 644.182 886.232 594.594 912.681C545.007 939.245 495.533 984.198 445.946 990.442C396.358 996.685 346.885 964.219 297.297 958.089C247.71 952.072 198.236 972.506 148.649 976.479C99.0613 980.452 49.5874 967.965 24.7369 961.721L0 955.478V1044.02Z" fill="#262E5F"/>
<path d="M0 1154.14H24.7369C49.5874 1154.14 99.0613 1154.14 148.649 1154.14C198.236 1154.14 247.71 1154.14 297.297 1154.14C346.885 1154.14 396.358 1154.14 445.946 1154.14C495.533 1154.14 545.007 1154.14 594.594 1154.14C644.182 1154.14 693.656 1154.14 743.016 1154.14C792.377 1154.14 841.623 1154.14 890.984 1154.14C940.344 1154.14 989.818 1154.14 1039.41 1154.14C1088.99 1154.14 1138.47 1154.14 1188.05 1154.14C1237.64 1154.14 1287.12 1154.14 1336.7 1154.14C1386.29 1154.14 1435.76 1154.14 1485.35 1154.14C1534.94 1154.14 1584.41 1154.14 1609.26 1154.14H1634V1054.24L1609.26 1062.41C1584.41 1070.47 1534.94 1086.82 1485.35 1080.58C1435.76 1074.33 1386.29 1045.5 1336.7 1039.25C1287.12 1033.01 1237.64 1049.36 1188.05 1051.4C1138.47 1053.44 1088.99 1041.41 1039.41 1043.45C989.818 1045.5 940.344 1061.84 890.984 1059.69C841.623 1057.64 792.377 1037.21 743.016 1033.24C693.656 1029.26 644.182 1041.75 594.594 1054.01C545.007 1066.39 495.533 1078.42 445.946 1086.59C396.358 1094.77 346.885 1098.85 297.297 1098.85C247.71 1098.85 198.236 1094.77 148.649 1084.55C99.0613 1074.33 49.5874 1057.99 24.7369 1049.93L0 1041.75V1154.14Z" fill="#2F386E"/>
</g>
<defs>
<clipPath id="clip0_76_3">
<rect width="1634" height="1226" fill="white" transform="translate(0 -73)"/>
</clipPath>
</defs>
</svg>
