<svg width="16" height="12" viewBox="0 0 16 12" fill="none" xmlns="http://www.w3.org/2000/svg">
<path d="M11.8497 11H5.89918C4.99041 10.9998 4.0996 10.7417 3.3263 10.2546C2.553 9.76755 1.92767 9.07068 1.5202 8.24187C1.11273 7.41306 0.939165 6.48497 1.0189 5.5613C1.09864 4.63764 1.42853 3.75479 1.97172 3.01142C2.51492 2.26804 3.25 1.69342 4.09484 1.35178C4.93968 1.01013 5.86099 0.91491 6.75582 1.07676C7.65064 1.23861 8.48373 1.65115 9.16199 2.26829C9.84025 2.88543 10.337 3.68284 10.5966 4.57143H11.8497C12.6852 4.57143 13.4865 4.91008 14.0773 5.51287C14.6681 6.11567 15 6.93323 15 7.78571C15 8.6382 14.6681 9.45576 14.0773 10.0586C13.4865 10.6614 12.6852 11 11.8497 11Z" stroke="#5088D0" stroke-width="1.5" stroke-linecap="round" stroke-linejoin="round"/>
</svg>
