<svg width="17" height="17" viewBox="0 0 17 17" fill="none" xmlns="http://www.w3.org/2000/svg">
<path d="M8.25 2.5H3.58333C3.22971 2.5 2.89057 2.64048 2.64052 2.89052C2.39048 3.14057 2.25 3.47971 2.25 3.83333V13.1667C2.25 13.5203 2.39048 13.8594 2.64052 14.1095C2.89057 14.3595 3.22971 14.5 3.58333 14.5H12.9167C13.2703 14.5 13.6094 14.3595 13.8595 14.1095C14.1095 13.8594 14.25 13.5203 14.25 13.1667V8.5" stroke="#5088D0" stroke-linecap="round" stroke-linejoin="round"/>
<path d="M12.5 2.24991C12.7652 1.98469 13.1249 1.83569 13.5 1.83569C13.8751 1.83569 14.2348 1.98469 14.5 2.24991C14.7652 2.51512 14.9142 2.87483 14.9142 3.24991C14.9142 3.62498 14.7652 3.98469 14.5 4.24991L8.49136 10.2592C8.33305 10.4174 8.13749 10.5332 7.92269 10.5959L6.00735 11.1559C5.94999 11.1726 5.88918 11.1736 5.83129 11.1588C5.77341 11.144 5.72057 11.1139 5.67832 11.0716C5.63607 11.0294 5.60595 10.9765 5.59112 10.9186C5.57629 10.8607 5.57729 10.7999 5.59402 10.7426L6.15402 8.82724C6.21704 8.61261 6.33304 8.41728 6.49136 8.25924L12.5 2.24991Z" stroke="#5088D0" stroke-linecap="round" stroke-linejoin="round"/>
</svg>
