<svg width="14" height="14" viewBox="0 0 14 14" fill="none" xmlns="http://www.w3.org/2000/svg">
<path d="M4.08333 9.50834C5.36667 9.50834 6.41667 8.44084 6.41667 7.14584C6.41667 6.46917 6.08417 5.82751 5.41917 5.28501C4.75417 4.74251 4.2525 3.93751 4.08333 3.09167C3.91417 3.93751 3.41833 4.74834 2.7475 5.28501C2.07667 5.82167 1.75 6.47501 1.75 7.14584C1.75 8.44084 2.8 9.50834 4.08333 9.50834Z" stroke="#5088D0" stroke-width="1.5" stroke-linecap="round" stroke-linejoin="round"/>
<path d="M7.32666 3.85005C7.72785 3.20904 8.01225 2.50199 8.16666 1.76172C8.45832 3.22005 9.33332 4.62005 10.5 5.55339C11.6667 6.48672 12.25 7.59505 12.25 8.76172C12.2533 9.56806 12.0172 10.3572 11.5715 11.0292C11.1257 11.7011 10.4906 12.2256 9.7464 12.5362C9.00225 12.8467 8.18265 12.9293 7.39151 12.7735C6.60036 12.6176 5.8733 12.2304 5.30249 11.6609" stroke="#5088D0" stroke-width="1.5" stroke-linecap="round" stroke-linejoin="round"/>
</svg>
