<svg width="1634" height="1080" viewBox="0 0 1634 1080" fill="none" xmlns="http://www.w3.org/2000/svg">
<g clip-path="url(#clip0_33_715)">
<rect width="1634" height="1080" fill="#4C4D74"/>
<g clip-path="url(#clip1_33_715)">
<path d="M1634.01 998.119V395.922C1585.83 399.717 1547.62 438.426 1545.38 486.451C1539.76 485.778 1534.05 485.421 1528.24 485.421C1465.91 485.421 1413.07 525.526 1394.7 581.036C1384.4 575.856 1372.75 572.916 1360.4 572.916C1322.41 572.916 1290.96 600.553 1285.52 636.584C1274.14 633.115 1262.06 631.243 1249.53 631.243C1215.98 631.243 1185.6 644.639 1163.56 666.304C1160.63 664.496 1157.64 662.785 1154.6 661.152C1134.64 647.33 1110.37 639.2 1084.17 639.2C1039.96 639.2 1001.21 662.303 979.478 696.987C966.319 688.928 950.818 684.266 934.212 684.266C915.341 684.266 897.898 690.291 883.696 700.481C862.732 673.52 829.854 656.132 792.86 656.132C752.699 656.132 717.385 676.62 696.908 707.614C682.169 698.473 664.759 693.17 646.09 693.17C635.068 693.17 624.491 695.036 614.63 698.427C593.079 662.941 553.856 639.2 509.03 639.2C476.429 639.2 446.805 651.778 424.773 672.281C414.868 657.489 397.903 647.713 378.607 647.713C364.779 647.713 352.144 652.735 342.445 661.018C334.539 618.479 296.839 586.237 251.492 586.237C234.847 586.237 219.246 590.602 205.751 598.201C180.357 545.592 127.966 508.146 66.2794 503.353C69.1683 495.059 70.7566 486.168 70.7566 476.904C70.7566 435.873 39.9829 401.98 0 396.416V998.119H1634.01Z" fill="#B7CAF7"/>
<path d="M1453.11 546.556L1454.93 545.37C1437.91 519.625 1438.46 486.803 1438.47 486.473L1436.29 486.423C1436.28 486.76 1435.71 520.236 1453.11 546.556Z" fill="#96AAE2"/>
<path d="M1324.55 635.638L1326.71 635.418C1322.56 595.145 1287.47 580.187 1287.12 580.038L1286.28 582.031C1286.62 582.176 1320.53 596.674 1324.55 635.638Z" fill="#96AAE2"/>
<path d="M1216.38 666.241L1218.24 665.111C1205.63 644.738 1178.99 635.923 1177.86 635.558L1177.18 637.613C1177.45 637.699 1204.2 646.553 1216.38 666.241Z" fill="#96AAE2"/>
<path d="M1191.02 703.596C1199.33 675.758 1225.6 656.316 1254.9 656.316C1277.72 656.316 1298.69 667.699 1311.02 686.77L1312.85 685.606C1300.12 665.913 1278.46 654.158 1254.9 654.158C1224.64 654.158 1197.51 674.238 1188.93 702.985L1191.02 703.596Z" fill="#96AAE2"/>
<path d="M1526.01 570.1V572.292C1513.79 570.115 1457.87 563.183 1431.66 612.613L1429.74 611.608C1456.32 561.466 1512.59 567.786 1526.01 570.1Z" fill="#96AAE2"/>
<path d="M1448.87 635.982L1450.96 635.349C1444.53 614.468 1420.75 602.819 1396.81 608.837L1397.35 610.93C1417.34 605.91 1442.08 613.902 1448.87 635.982Z" fill="#96AAE2"/>
<path d="M627.265 832.933L629.35 832.3C622.923 811.419 599.145 799.768 575.21 805.788L575.746 807.881C595.731 802.861 620.468 810.853 627.265 832.933Z" fill="#96AAE2"/>
<path d="M856.653 806.879L857.539 804.904C837.43 796.01 812.959 806.153 801.831 828.008L803.776 828.98C813.073 810.734 835.389 797.474 856.653 806.879Z" fill="#96AAE2"/>
<path d="M1457.73 746.267C1473.22 707.469 1516.47 706.486 1526.01 706.763V704.605C1515.85 704.326 1471.07 705.529 1455.41 746.267H1457.73Z" fill="#96AAE2"/>
<path d="M-45.9797 710.156C-9.38466 685.316 18.4456 706.702 18.7201 706.923L20.0818 705.236C19.792 705.007 -9.24523 682.605 -47.2085 708.372L-45.9797 710.156Z" fill="#96AAE2"/>
<path d="M146.758 648.32L148.856 647.741C142.545 625.201 125.34 607.636 102.83 600.748C73.9209 591.894 42.0208 603.152 25.2734 628.117L27.0861 629.316C43.2997 605.141 74.1845 594.248 102.187 602.813C123.984 609.481 140.645 626.493 146.758 648.32Z" fill="#96AAE2"/>
<path d="M1206.24 736.456H1208.42C1208.42 713.511 1189.59 694.844 1166.45 694.844C1147.65 694.844 1131.01 707.372 1126 725.309L1128.1 725.887C1132.86 708.882 1148.62 697.004 1166.45 697.004C1188.39 697.004 1206.24 714.703 1206.24 736.456Z" fill="#96AAE2"/>
<path d="M396.963 758.35C405.272 730.512 431.545 711.07 460.848 711.07C483.661 711.07 504.639 722.453 516.968 741.524L518.8 740.359C506.07 720.667 484.403 708.912 460.848 708.912C430.584 708.912 403.457 728.991 394.873 757.739L396.963 758.35Z" fill="#96AAE2"/>
<path d="M1013.9 745.165C1005.59 717.327 979.318 697.885 950.015 697.885C927.202 697.885 906.224 709.271 893.895 728.339L892.062 727.175C904.792 707.482 926.459 695.725 950.015 695.725C980.279 695.725 1007.41 715.805 1015.99 744.552L1013.9 745.165Z" fill="#96AAE2"/>
<path d="M412.185 791.21H414.364C414.364 768.264 395.536 749.598 372.392 749.598C353.594 749.598 336.96 762.126 331.945 780.065L334.043 780.641C338.801 763.636 354.57 751.758 372.394 751.758C394.335 751.758 412.185 769.457 412.185 791.21Z" fill="#96AAE2"/>
<path d="M1060.65 762.664L1062.51 761.547C1050.54 741.908 1024.69 735.588 1004.88 747.455C988.793 757.093 981.091 776.345 986.155 794.271L988.25 793.69C983.451 776.695 990.752 758.443 1006 749.304C1024.79 738.05 1049.3 744.044 1060.65 762.664Z" fill="#96AAE2"/>
<path d="M293.156 734.473C274.907 696.866 241.504 711.616 240.094 712.266L239.179 710.305C239.541 710.141 275.929 693.986 295.119 733.538L293.156 734.473Z" fill="#96AAE2"/>
<path d="M284.635 719.207L282.576 718.502C292.086 691.116 315.849 671.637 316.088 671.445L317.468 673.114C317.232 673.304 293.94 692.414 284.635 719.207Z" fill="#96AAE2"/>
<path d="M610.585 731.264C603.156 718.928 588.433 708.601 588.287 708.497L589.537 706.73C590.156 707.16 604.783 717.418 612.459 730.156L610.585 731.264Z" fill="#96AAE2"/>
<path d="M758.702 721.513L756.8 720.464C763.31 708.875 774.545 700.002 775.022 699.63L776.371 701.326C776.26 701.417 764.998 710.312 758.702 721.513Z" fill="#96AAE2"/>
<path d="M774.853 735.18C764.001 721.93 750.915 718.425 734.874 724.47L734.101 722.451C750.907 716.131 765.186 719.954 776.541 733.819L774.853 735.18Z" fill="#96AAE2"/>
<path d="M857.149 727.894L855.099 727.16C861.389 709.886 870.489 696.509 870.579 696.375L872.383 697.591C872.291 697.723 863.339 710.888 857.149 727.894Z" fill="#96AAE2"/>
<path d="M1056.24 665.48L1054.95 667.227L1086.16 689.789L1087.45 688.042L1056.24 665.48Z" fill="#96AAE2"/>
<path d="M555.25 164.877L365.872 701.842C365.724 702.264 365.258 702.488 364.831 702.339C364.404 702.192 364.179 701.73 364.329 701.307C364.73 701.441 554.527 163.231 555.25 164.877Z" fill="white"/>
<path d="M259.078 22.3236L69.6998 559.289C69.5517 559.71 69.0854 559.935 68.6584 559.786C68.2314 559.639 68.007 559.176 68.1573 558.753C68.5582 558.887 258.355 20.6799 259.078 22.3236Z" fill="white"/>
<path d="M1106.31 624.352L989.398 956.521C989.25 956.945 988.783 957.167 988.356 957.018C987.929 956.871 987.705 956.409 987.855 955.986C988.261 956.113 1105.58 622.715 1106.31 624.352Z" fill="white"/>
<path d="M657.657 22.3236L468.278 559.289C468.13 559.71 467.664 559.935 467.237 559.786C466.81 559.639 466.585 559.176 466.736 558.753C467.139 558.887 656.933 20.6799 657.657 22.3236Z" fill="white"/>
<path d="M484.568 149.489L295.187 686.454C295.039 686.876 294.573 687.098 294.146 686.951C293.719 686.804 293.495 686.342 293.645 685.919C294.048 686.053 483.842 147.846 484.568 149.489Z" fill="white"/>
<path d="M307.804 401.989L118.426 938.954C118.278 939.375 117.811 939.598 117.384 939.451C116.959 939.304 116.733 938.842 116.883 938.418C117.286 938.55 307.079 400.345 307.804 401.989Z" fill="white"/>
<path d="M695.605 362.694L506.226 899.659C506.078 900.081 505.612 900.305 505.185 900.156C504.758 900.009 504.533 899.547 504.684 899.124C505.085 899.258 694.879 361.048 695.605 362.694Z" fill="white"/>
<path d="M802.697 285.293L613.318 822.258C613.17 822.679 612.704 822.904 612.277 822.755C611.852 822.608 611.626 822.146 611.776 821.722C612.177 821.856 801.974 283.649 802.697 285.293Z" fill="white"/>
<path d="M771.087 515.078L581.708 1052.04C581.56 1052.46 581.094 1052.69 580.667 1052.54C580.242 1052.39 580.015 1051.93 580.166 1051.51C580.567 1051.64 770.363 513.434 771.087 515.078Z" fill="white"/>
<path d="M412.138 508.766L266.12 923.203C265.972 923.625 265.505 923.849 265.078 923.7C264.654 923.553 264.427 923.091 264.577 922.668C264.98 922.797 411.413 507.127 412.138 508.766Z" fill="white"/>
<path d="M1070.47 488.646L881.092 1025.61C880.944 1026.03 880.478 1026.26 880.051 1026.11C879.624 1025.96 879.399 1025.5 879.549 1025.08C879.952 1025.21 1069.75 487 1070.47 488.646Z" fill="white"/>
<path d="M980.123 172.027L910.338 371.04C910.19 371.464 909.724 371.686 909.299 371.539C908.872 371.393 908.648 370.93 908.796 370.509C909.203 370.613 979.398 170.405 980.123 172.027Z" fill="white"/>
<path d="M708.62 22.3301L638.835 221.344C638.687 221.767 638.221 221.99 637.796 221.843C637.369 221.696 637.144 221.234 637.292 220.812C637.698 220.916 707.894 20.7101 708.62 22.3301Z" fill="white"/>
<path d="M539.564 65.4696L469.779 264.483C469.631 264.907 469.165 265.129 468.74 264.982C468.313 264.835 468.089 264.373 468.237 263.952C468.642 264.056 538.839 63.8496 539.564 65.4696Z" fill="white"/>
<path d="M104.306 65.4696L34.5207 264.483C34.3726 264.907 33.9063 265.129 33.4815 264.982C33.0545 264.835 32.8301 264.373 32.9782 263.952C33.3856 264.056 103.58 63.8496 104.306 65.4696Z" fill="white"/>
<path d="M447.317 644.849L377.532 843.862C377.384 844.286 376.918 844.508 376.493 844.361C376.066 844.214 375.842 843.752 375.99 843.331C376.395 843.435 446.592 643.229 447.317 644.849Z" fill="white"/>
<path d="M87.9939 261.684L34.5207 414.601C34.3726 415.025 33.9085 415.247 33.4815 415.1C33.0545 414.953 32.8301 414.493 32.9782 414.07C33.3856 414.167 87.2706 260.071 87.9939 261.684Z" fill="white"/>
<path d="M182.651 121.738L112.866 320.751C112.718 321.175 112.251 321.397 111.826 321.25C111.399 321.103 111.175 320.641 111.323 320.22C111.731 320.324 181.925 120.118 182.651 121.738Z" fill="white"/>
<path d="M360.935 78.0149L291.15 277.029C291.002 277.452 290.536 277.674 290.111 277.528C289.684 277.381 289.46 276.918 289.608 276.497C290.015 276.601 360.21 76.3927 360.935 78.0149Z" fill="white"/>
<path d="M257.366 306.867L187.581 505.881C187.433 506.304 186.966 506.526 186.542 506.38C186.115 506.233 185.89 505.77 186.038 505.349C186.446 505.451 256.64 305.245 257.366 306.867Z" fill="white"/>
<path d="M1585.84 306.867L1516.05 505.881C1515.9 506.304 1515.44 506.526 1515.01 506.38C1514.58 506.233 1514.36 505.77 1514.51 505.349C1514.92 505.451 1585.11 305.245 1585.84 306.867Z" fill="white"/>
<path d="M194.224 543L84.8371 853.926C84.689 854.347 84.2228 854.572 83.7957 854.423C83.3709 854.276 83.1443 853.814 83.2925 853.39C83.6977 853.515 193.5 541.363 194.224 543Z" fill="white"/>
<path d="M166.077 22.3387L129.439 127.684C129.105 128.645 127.539 128.19 127.894 127.155C128.306 127.222 165.361 20.7447 166.077 22.3387Z" fill="white"/>
<path d="M522.989 22.3452L497.111 97.2886C496.773 98.2649 495.215 97.7875 495.564 96.7637C495.967 96.8242 522.292 20.7554 522.989 22.3452Z" fill="white"/>
<path d="M240.793 232.721L204.154 338.066C203.821 339.027 202.254 338.571 202.609 337.537C203.021 337.604 240.076 231.126 240.793 232.721Z" fill="white"/>
<path d="M1592.05 730.903L1555.42 836.248C1555.08 837.21 1553.52 836.754 1553.87 835.719C1554.28 835.788 1591.34 729.309 1592.05 730.903Z" fill="white"/>
<path d="M1611.17 499.031L1574.53 604.377C1574.2 605.338 1572.63 604.882 1572.99 603.85C1573.4 603.914 1610.45 497.437 1611.17 499.031Z" fill="white"/>
<path d="M1442.97 22.3387L1406.33 127.684C1406 128.645 1404.43 128.19 1404.78 127.155C1405.2 127.222 1442.25 20.7447 1442.97 22.3387Z" fill="white"/>
<path d="M934.253 22.3387L897.615 127.684C897.281 128.645 895.715 128.19 896.07 127.155C896.482 127.222 933.537 20.7447 934.253 22.3387Z" fill="white"/>
<path d="M762.043 211.71L725.404 317.056C725.071 318.017 723.507 317.561 723.86 316.529C724.271 316.596 761.326 210.116 762.043 211.71Z" fill="white"/>
<path d="M726.326 814.281L689.687 919.626C689.354 920.588 687.79 920.132 688.143 919.097C688.554 919.164 725.609 812.687 726.326 814.281Z" fill="white"/>
<path d="M915.136 567.868L870.97 694.483C870.643 695.434 869.068 694.997 869.425 693.954C869.837 694.036 914.414 566.266 915.136 567.868Z" fill="white"/>
<path d="M1072.86 925.445L1028.69 1052.06C1028.36 1053.01 1026.79 1052.57 1027.15 1051.53C1027.56 1051.62 1072.14 923.843 1072.86 925.445Z" fill="white"/>
<path d="M876.445 460.035L809.915 649.851C809.767 650.275 809.3 650.497 808.873 650.35C808.449 650.203 808.222 649.741 808.37 649.32C808.778 649.423 875.719 458.413 876.445 460.035Z" fill="white"/>
<path d="M596.233 772.034L529.703 961.848C529.555 962.271 529.089 962.494 528.662 962.347C528.237 962.2 528.011 961.738 528.159 961.317C528.566 961.422 595.508 770.414 596.233 772.034Z" fill="white"/>
<path d="M607.419 460.035L563.255 586.649C562.926 587.6 561.353 587.164 561.71 586.12C562.12 586.202 606.697 458.43 607.419 460.035Z" fill="white"/>
<path d="M292.229 593.836L248.065 720.451C247.736 721.401 246.163 720.965 246.52 719.922C246.93 720.006 291.51 592.233 292.229 593.836Z" fill="white"/>
<path d="M836.843 615.399L792.679 742.014C792.35 742.964 790.777 742.526 791.135 741.485C791.544 741.567 836.122 613.794 836.843 615.399Z" fill="white"/>
<path d="M781.281 774.22L737.117 900.834C736.788 901.785 735.215 901.349 735.572 900.305C735.982 900.387 780.56 772.617 781.281 774.22Z" fill="white"/>
<path d="M622.996 279.348L578.833 405.963C578.504 406.912 576.931 406.477 577.288 405.434C577.697 405.518 622.275 277.746 622.996 279.348Z" fill="white"/>
<path d="M854.079 78.0149L809.915 204.63C809.586 205.578 808.013 205.144 808.37 204.101C808.78 204.183 853.358 76.41 854.079 78.0149Z" fill="white"/>
<path d="M383.304 925.445L339.14 1052.06C338.811 1053.01 337.238 1052.57 337.595 1051.53C338.005 1051.62 382.582 923.843 383.304 925.445Z" fill="white"/>
<path d="M453.038 841.683L408.874 968.298C408.545 969.248 406.973 968.812 407.33 967.768C407.739 967.851 452.317 840.08 453.038 841.683Z" fill="white"/>
<path d="M679.421 946.104L635.258 1072.72C634.929 1073.67 633.356 1073.23 633.713 1072.19C634.123 1072.27 678.703 944.501 679.421 946.104Z" fill="white"/>
<path d="M885.687 921.069L841.523 1047.68C841.194 1048.63 839.621 1048.2 839.978 1047.16C840.39 1047.24 884.968 919.464 885.687 921.069Z" fill="white"/>
<path d="M1025.92 229.56L946.513 455.753C946.365 456.177 945.899 456.399 945.471 456.252C945.047 456.106 944.82 455.643 944.968 455.22C945.376 455.334 1025.19 227.932 1025.92 229.56Z" fill="white"/>
<path d="M107.977 895.486L63.8108 1022.1C63.4818 1023.05 61.9088 1022.62 62.2661 1021.57C62.6779 1021.65 107.256 893.881 107.977 895.486Z" fill="white"/>
<path d="M863.386 732.499L766.137 1009.12C765.989 1009.55 765.522 1009.77 765.095 1009.62C764.67 1009.48 764.444 1009.01 764.592 1008.59C764.997 1008.71 862.66 730.866 863.386 732.499Z" fill="white"/>
<path d="M278.298 734.728L166.648 1052.04C166.5 1052.46 166.034 1052.69 165.607 1052.54C165.18 1052.39 164.955 1051.93 165.103 1051.51C165.509 1051.63 277.573 733.091 278.298 734.728Z" fill="white"/>
<path d="M147.472 460.035L35.8215 777.349C35.6733 777.771 35.2071 777.995 34.7801 777.848C34.3531 777.701 34.1287 777.239 34.2768 776.816C34.6842 776.941 146.748 458.397 147.472 460.035Z" fill="white"/>
<path d="M439.413 22.3279L327.763 339.643C327.615 340.066 327.148 340.289 326.721 340.142C326.294 339.995 326.07 339.533 326.22 339.109C326.623 339.232 438.69 20.6885 439.413 22.3279Z" fill="white"/>
<path d="M1614.36 22.3279L1502.71 339.643C1502.56 340.066 1502.1 340.289 1501.67 340.142C1501.24 339.995 1501.02 339.533 1501.17 339.109C1501.57 339.232 1613.64 20.6885 1614.36 22.3279Z" fill="white"/>
<path d="M992.742 22.3279L901.358 282.379C901.21 282.802 900.744 283.025 900.319 282.878C899.892 282.731 899.667 282.269 899.815 281.848C900.218 281.966 992.017 20.695 992.742 22.3279Z" fill="white"/>
<path d="M789.497 22.3258L674.252 349.799C674.103 350.22 673.637 350.445 673.21 350.296C672.785 350.149 672.559 349.687 672.709 349.263C673.112 349.391 788.773 20.6885 789.497 22.3258Z" fill="white"/>
<path d="M515.185 602.573L423.801 862.624C423.653 863.047 423.186 863.27 422.759 863.123C422.332 862.976 422.108 862.514 422.256 862.09C422.661 862.211 514.462 600.94 515.185 602.573Z" fill="white"/>
<path d="M513.684 765.56L422.3 1025.61C422.151 1026.03 421.685 1026.26 421.258 1026.11C420.833 1025.96 420.607 1025.5 420.755 1025.08C421.16 1025.2 512.96 763.927 513.684 765.56Z" fill="white"/>
<path d="M1050.49 388.662L861.111 925.627C860.963 926.048 860.497 926.273 860.07 926.124C859.643 925.977 859.419 925.515 859.569 925.091C859.97 925.225 1049.77 387.018 1050.49 388.662Z" fill="white"/>
<path d="M892.613 207.49L703.234 744.455C703.086 744.876 702.62 745.101 702.193 744.952C701.768 744.805 701.543 744.343 701.692 743.919C702.093 744.053 891.889 205.846 892.613 207.49Z" fill="white"/>
<path d="M1561.56 656.666L1444.65 988.835C1444.5 989.258 1444.04 989.481 1443.61 989.332C1443.18 989.185 1442.96 988.723 1443.11 988.299C1443.51 988.427 1560.84 655.029 1561.56 656.666Z" fill="white"/>
<path d="M1142.54 22.3236L953.162 559.289C953.014 559.71 952.548 559.935 952.121 559.786C951.696 559.639 951.469 559.176 951.62 558.753C952.023 558.887 1141.82 20.6799 1142.54 22.3236Z" fill="white"/>
<path d="M1217.75 362.694L1028.37 899.659C1028.22 900.081 1027.76 900.305 1027.33 900.156C1026.9 900.009 1026.68 899.547 1026.83 899.124C1027.23 899.258 1217.02 361.048 1217.75 362.694Z" fill="white"/>
<path d="M1287.58 285.293L1098.2 822.258C1098.05 822.679 1097.59 822.904 1097.16 822.755C1096.74 822.608 1096.51 822.146 1096.66 821.722C1097.06 821.856 1286.86 283.649 1287.58 285.293Z" fill="white"/>
<path d="M1251.93 515.078L1062.55 1052.04C1062.4 1052.46 1061.94 1052.69 1061.51 1052.54C1061.09 1052.39 1060.86 1051.93 1061.01 1051.51C1061.41 1051.64 1251.21 513.434 1251.93 515.078Z" fill="white"/>
<path d="M1555.36 488.646L1365.98 1025.61C1365.83 1026.03 1365.36 1026.26 1364.93 1026.11C1364.51 1025.96 1364.28 1025.5 1364.43 1025.08C1364.84 1025.21 1554.63 487 1555.36 488.646Z" fill="white"/>
<path d="M1465.01 172.027L1395.22 371.04C1395.07 371.464 1394.61 371.686 1394.18 371.539C1393.76 371.393 1393.53 370.93 1393.68 370.509C1394.09 370.613 1464.28 170.405 1465.01 172.027Z" fill="white"/>
<path d="M1193.5 22.3301L1123.72 221.344C1123.57 221.767 1123.1 221.99 1122.68 221.843C1122.25 221.696 1122.03 221.234 1122.18 220.812C1122.58 220.916 1192.78 20.7101 1193.5 22.3301Z" fill="white"/>
<path d="M1246.93 211.71L1210.29 317.056C1209.96 318.017 1208.39 317.561 1208.74 316.529C1209.16 316.596 1246.21 210.116 1246.93 211.71Z" fill="white"/>
<path d="M1211.21 814.281L1174.57 919.626C1174.24 920.588 1172.67 920.132 1173.03 919.097C1173.44 919.164 1210.5 812.687 1211.21 814.281Z" fill="white"/>
<path d="M1400.02 567.868L1355.86 694.483C1355.53 695.434 1353.95 694.997 1354.31 693.954C1354.72 694.036 1399.3 566.266 1400.02 567.868Z" fill="white"/>
<path d="M1165.04 412.679L1120.88 539.294C1120.55 540.244 1118.98 539.808 1119.33 538.764C1119.74 538.849 1164.32 411.076 1165.04 412.679Z" fill="white"/>
<path d="M65.3991 387.078L21.2353 513.696C20.9063 514.646 19.3333 514.21 19.6906 513.166C20.1002 513.248 64.6801 385.476 65.3991 387.078Z" fill="white"/>
<path d="M1557.74 925.445L1513.58 1052.06C1513.25 1053.01 1511.68 1052.57 1512.03 1051.53C1512.44 1051.62 1557.02 923.843 1557.74 925.445Z" fill="white"/>
<path d="M1361.33 460.035L1294.8 649.851C1294.65 650.275 1294.18 650.497 1293.76 650.35C1293.33 650.203 1293.11 649.741 1293.26 649.32C1293.66 649.423 1360.61 458.413 1361.33 460.035Z" fill="white"/>
<path d="M1321.73 615.399L1277.56 742.014C1277.23 742.964 1275.66 742.526 1276.02 741.485C1276.43 741.567 1321.01 613.794 1321.73 615.399Z" fill="white"/>
<path d="M1266.17 774.22L1222 900.834C1221.67 901.785 1220.1 901.349 1220.46 900.305C1220.87 900.387 1265.45 772.617 1266.17 774.22Z" fill="white"/>
<path d="M1107.88 279.348L1063.72 405.963C1063.39 406.912 1061.81 406.477 1062.17 405.434C1062.58 405.518 1107.16 277.746 1107.88 279.348Z" fill="white"/>
<path d="M1338.96 78.0149L1294.8 204.63C1294.47 205.578 1292.9 205.144 1293.25 204.101C1293.66 204.183 1338.24 76.41 1338.96 78.0149Z" fill="white"/>
<path d="M1510.8 229.56L1431.4 455.753C1431.25 456.177 1430.78 456.399 1430.36 456.252C1429.93 456.106 1429.71 455.643 1429.85 455.22C1430.26 455.334 1510.08 227.932 1510.8 229.56Z" fill="white"/>
<path d="M1348.27 732.499L1251.02 1009.12C1250.87 1009.55 1250.41 1009.77 1249.98 1009.62C1249.55 1009.48 1249.33 1009.01 1249.48 1008.59C1249.88 1008.71 1347.54 730.866 1348.27 732.499Z" fill="white"/>
<path d="M1477.63 22.3279L1386.24 282.379C1386.09 282.802 1385.63 283.025 1385.2 282.878C1384.77 282.731 1384.55 282.269 1384.7 281.848C1385.1 281.966 1476.9 20.695 1477.63 22.3279Z" fill="white"/>
<path d="M1274.38 22.3258L1159.14 349.799C1158.99 350.22 1158.52 350.445 1158.1 350.296C1157.67 350.149 1157.44 349.687 1157.6 349.263C1158 349.391 1273.66 20.6885 1274.38 22.3258Z" fill="white"/>
<path d="M1535.37 388.662L1346 925.627C1345.85 926.048 1345.38 926.273 1344.95 926.124C1344.53 925.977 1344.3 925.515 1344.45 925.091C1344.85 925.225 1534.65 387.018 1535.37 388.662Z" fill="white"/>
<path d="M1388.69 207.49L1199.31 744.455C1199.16 744.876 1198.69 745.101 1198.27 744.952C1197.84 744.805 1197.62 744.343 1197.77 743.919C1198.17 744.053 1387.96 205.846 1388.69 207.49Z" fill="white"/>
<path d="M1634 1080V564.086C1594.02 569.65 1563.24 603.543 1563.24 644.574C1563.24 653.836 1564.83 662.729 1567.72 671.023C1506.03 675.817 1453.64 713.26 1428.25 765.871C1414.76 758.27 1399.15 753.907 1382.51 753.907C1337.16 753.907 1299.46 786.149 1291.55 828.686C1281.86 820.403 1269.22 815.383 1255.39 815.383C1236.1 815.383 1219.13 825.157 1209.23 839.951C1187.19 819.45 1157.57 806.87 1124.97 806.87C1080.15 806.87 1040.92 830.613 1019.37 866.097C1009.51 862.706 998.934 860.84 987.91 860.84C969.243 860.84 951.833 866.143 937.094 875.284C916.617 844.29 881.303 823.802 841.142 823.802C804.15 823.802 771.27 841.19 750.306 868.152C736.104 857.961 718.661 851.936 699.79 851.936C683.186 851.936 667.685 856.598 654.524 864.657C632.791 829.976 594.039 806.87 549.828 806.87C523.631 806.87 499.363 815 479.4 828.822C476.361 830.455 473.37 832.166 470.446 833.974C448.404 812.309 418.025 798.913 384.473 798.913C371.944 798.913 359.859 800.785 348.482 804.254C343.04 768.223 311.593 740.586 273.603 740.586C261.252 740.586 249.605 743.526 239.307 748.706C220.932 693.196 168.09 653.091 105.759 653.091C99.957 653.091 94.2402 653.445 88.6236 654.122C86.3904 606.096 48.181 567.385 -0.000244141 563.592V1080H1634Z" fill="#8EA4E7"/>
<path d="M72.9002 714.226L71.0789 713.04C88.0964 687.295 87.5452 654.474 87.5387 654.143L89.7174 654.093C89.7261 654.43 90.2991 687.906 72.9002 714.226Z" fill="#6A7ED3"/>
<path d="M201.459 803.306L199.293 803.086C203.444 762.813 238.538 747.855 238.891 747.706L239.73 749.699C239.39 749.844 205.477 764.342 201.459 803.306Z" fill="#6A7ED3"/>
<path d="M309.623 833.909L307.769 832.779C320.375 812.406 347.02 803.591 348.149 803.226L348.826 805.28C348.556 805.367 321.806 814.223 309.623 833.909Z" fill="#6A7ED3"/>
<path d="M61.9875 981.832L60.0049 980.938C68.4908 962.462 88.5912 951.538 108.885 954.366C124.683 956.569 138.093 966.477 144.755 980.871L142.777 981.774C136.424 968.049 123.639 958.604 108.583 956.506C89.2361 953.8 70.079 964.222 61.9875 981.832Z" fill="#6A7ED3"/>
<path d="M334.989 871.264C326.68 843.426 300.407 823.984 271.104 823.984C248.292 823.984 227.313 835.367 214.984 854.438L213.152 853.273C225.882 833.581 247.549 821.826 271.104 821.826C301.368 821.826 328.495 841.905 337.079 870.653L334.989 871.264Z" fill="#6A7ED3"/>
<path d="M0 737.77V739.962C12.2201 737.785 68.1356 730.856 94.3428 780.283L96.2709 779.278C69.6847 729.134 13.4184 735.454 0 737.77Z" fill="#6A7ED3"/>
<path d="M77.1358 803.65L75.0508 803.017C81.4778 782.136 105.256 770.487 129.193 776.505L128.657 778.598C108.67 773.58 83.931 781.572 77.1358 803.65Z" fill="#6A7ED3"/>
<path d="M195.13 951.489L193.045 950.856C199.472 929.975 223.252 918.326 247.187 924.344L246.651 926.437C226.662 921.415 201.925 929.409 195.13 951.489Z" fill="#6A7ED3"/>
<path d="M0 872.275V874.433C10.1613 874.137 58.5713 875.267 70.9374 922.013L73.0442 921.465C60.3077 873.32 10.7452 871.981 0 872.275Z" fill="#6A7ED3"/>
<path d="M109.822 955.5L107.648 955.37C108.589 939.725 120.923 925.286 139.833 917.691C159.624 909.74 189.117 908.835 212.559 930.12L211.087 931.714C188.396 911.103 159.825 911.989 140.65 919.694C122.526 926.973 110.713 940.693 109.822 955.5Z" fill="#6A7ED3"/>
<path d="M1253.81 878.954C1240.52 863.745 1219.58 848.93 1208.28 841.452L1209.49 839.655C1220.88 847.193 1242 862.14 1255.46 877.541L1253.81 878.954Z" fill="#6A7ED3"/>
<path d="M1209.81 910.9L1207.96 909.749C1208.3 909.217 1242.72 856.565 1319.2 877.206L1318.63 879.291C1243.68 859.073 1210.14 910.38 1209.81 910.9Z" fill="#6A7ED3"/>
<path d="M1571.99 877.826C1535.39 852.986 1507.56 874.372 1507.29 874.593L1505.92 872.906C1506.21 872.677 1535.25 850.278 1573.22 876.042L1571.99 877.826Z" fill="#6A7ED3"/>
<path d="M1379.25 815.988L1377.15 815.411C1383.46 792.871 1400.67 775.306 1423.18 768.418C1452.09 759.564 1483.99 770.822 1500.73 795.787L1498.92 796.986C1482.71 772.811 1451.82 761.919 1423.82 770.481C1402.02 777.151 1385.36 794.163 1379.25 815.988Z" fill="#6A7ED3"/>
<path d="M1614.29 675.322C1593.61 671.008 1568.02 672.093 1567.77 672.099L1567.67 669.944C1567.93 669.933 1593.79 668.838 1614.73 673.209L1614.29 675.322Z" fill="#6A7ED3"/>
<path d="M1634 790.044C1623.05 790.551 1556.42 796.45 1540.11 864.413L1542.22 864.914C1558.15 798.563 1623.2 792.714 1634 792.204V790.044Z" fill="#6A7ED3"/>
<path d="M1406.98 956.411L1405.01 955.491C1430.8 901.264 1490.5 913.14 1491.1 913.265L1490.65 915.38C1490.06 915.252 1432.02 903.751 1406.98 956.411Z" fill="#6A7ED3"/>
<path d="M1634 946.391C1568.92 944.76 1546.58 994.749 1546.36 995.259L1548.36 996.11C1548.42 995.982 1553.94 983.439 1567.4 971.374C1579.61 960.431 1601.03 947.678 1634 948.553L1634 946.391Z" fill="#6A7ED3"/>
<path d="M1556.01 981.5C1544.74 966.391 1521.41 964.725 1521.17 964.71L1521.31 962.554C1522.31 962.617 1545.88 964.289 1557.77 980.212L1556.01 981.5Z" fill="#6A7ED3"/>
<path d="M1426.45 930.951C1415.17 915.842 1391.84 914.177 1391.6 914.164L1391.74 912.008C1392.74 912.071 1416.31 913.743 1428.2 929.666L1426.45 930.951Z" fill="#6A7ED3"/>
<path d="M1462.4 914.613C1461.56 904.63 1469.91 896.232 1470.26 895.88L1471.8 897.407C1471.72 897.487 1463.81 905.461 1464.57 914.432L1462.4 914.613Z" fill="#6A7ED3"/>
<path d="M619.563 919.374L617.406 919.074C622.735 881.414 653.683 863.883 653.994 863.711L655.058 865.596C654.757 865.767 624.739 882.807 619.563 919.374Z" fill="#6A7ED3"/>
<path d="M511.725 919.406C502.919 867.985 470.014 835.067 469.681 834.741L471.217 833.209C471.553 833.54 504.945 866.916 513.873 919.043L511.725 919.406Z" fill="#6A7ED3"/>
<path d="M467.684 937.911L466.191 936.336C466.566 935.989 504.314 901.778 568.016 925.13L567.257 927.156C534.651 915.203 509.32 918.758 493.812 923.849C477.004 929.368 467.773 937.827 467.684 937.911Z" fill="#6A7ED3"/>
<path d="M319.767 904.126H317.589C317.589 881.181 336.417 862.514 359.561 862.514C378.358 862.514 394.992 875.042 400.008 892.979L397.91 893.558C393.151 876.552 377.382 864.674 359.561 864.674C337.617 864.674 319.767 882.371 319.767 904.126Z" fill="#6A7ED3"/>
<path d="M1233.79 971.253L1231.65 970.885C1236.43 943.505 1222.07 916.069 1196.71 904.165C1165.5 889.51 1128.06 902.761 1113.27 933.716L1111.31 932.792C1126.61 900.761 1165.34 887.045 1197.64 902.213C1223.88 914.531 1238.75 942.922 1233.79 971.253Z" fill="#6A7ED3"/>
<path d="M900.674 919.575L898.615 918.875C907.606 892.789 936.225 874.552 936.515 874.372L937.681 876.195C937.397 876.37 909.415 894.214 900.674 919.575Z" fill="#6A7ED3"/>
<path d="M1071.31 910.9C1052.24 880.209 1019.31 867.229 1018.98 867.102L1019.76 865.089C1020.1 865.218 1053.7 878.442 1073.17 909.766L1071.31 910.9Z" fill="#6A7ED3"/>
<path d="M1161.22 971.57C1150.2 950.765 1129.44 936.881 1104.27 933.479C1080.71 930.306 1057.47 937.362 1043.66 951.925L1042.07 950.443C1056.36 935.379 1080.31 928.053 1104.57 931.338C1130.44 934.835 1151.8 949.132 1163.15 970.564L1161.22 971.57Z" fill="#6A7ED3"/>
<path d="M730.99 914.779L728.866 914.298C734.605 889.365 749.259 867.758 749.407 867.542L751.211 868.752C751.067 868.968 736.635 890.253 730.99 914.779Z" fill="#6A7ED3"/>
<path d="M763.84 946.614C751.825 921.318 732.173 915.371 717.801 914.838C700.5 914.209 685.35 921.167 683.574 924.279L681.676 923.216C683.96 919.22 699.879 912.01 717.881 912.68C732.858 913.235 753.328 919.415 765.81 945.693L763.84 946.614Z" fill="#6A7ED3"/>
<path d="M1634 1080V729.652C1585.82 733.447 1547.61 772.157 1545.37 820.182C1539.76 819.508 1534.04 819.152 1528.24 819.152C1465.91 819.152 1413.06 859.257 1394.69 914.766C1384.39 909.587 1372.74 906.647 1360.39 906.647C1322.4 906.647 1290.96 934.284 1285.51 970.315C1274.14 966.846 1262.05 964.974 1249.52 964.974C1215.97 964.974 1185.59 978.37 1163.55 1000.03C1160.63 998.227 1157.63 996.516 1154.6 994.883C1134.63 981.061 1110.36 972.931 1084.17 972.931C1039.96 972.931 1001.2 996.036 979.472 1030.72C966.313 1022.66 950.812 1018 934.206 1018C915.334 1018 897.892 1024.02 883.689 1034.21C862.726 1007.25 829.848 989.863 792.854 989.863C752.692 989.863 717.378 1010.35 696.901 1041.34C682.162 1032.2 664.753 1026.9 646.084 1026.9C635.062 1026.9 624.484 1028.77 614.624 1032.16C593.072 996.672 553.85 972.931 509.024 972.931C476.422 972.931 446.799 985.509 424.766 1006.01C414.862 991.22 397.896 981.444 378.6 981.444C364.772 981.444 352.138 986.466 342.438 994.749C334.532 952.21 296.832 919.968 251.486 919.968C234.841 919.968 219.239 924.333 205.745 931.932C180.35 879.323 127.96 841.877 66.2728 837.084C69.1617 828.79 70.75 819.897 70.75 810.635C70.75 769.604 39.9763 735.711 -0.0065918 730.147V1080H1634Z" fill="white"/>
<path d="M1561.1 880.289L1562.92 879.103C1545.9 853.358 1546.45 820.537 1546.46 820.206L1544.28 820.156C1544.27 820.493 1543.7 853.969 1561.1 880.289Z" fill="#C5D7FF"/>
<path d="M1432.54 969.369L1434.71 969.149C1430.56 928.876 1395.46 913.918 1395.11 913.769L1394.27 915.762C1394.61 915.907 1428.53 930.405 1432.54 969.369Z" fill="#C5D7FF"/>
<path d="M1324.38 999.972L1326.23 998.842C1313.62 978.469 1286.98 969.654 1285.85 969.289L1285.18 971.343C1285.44 971.43 1312.19 980.286 1324.38 999.972Z" fill="#C5D7FF"/>
<path d="M1299.01 1037.33C1307.32 1009.49 1333.59 990.047 1362.9 990.047C1385.71 990.047 1406.69 1001.43 1419.02 1020.5L1420.85 1019.34C1408.12 999.644 1386.45 987.887 1362.9 987.887C1332.63 987.887 1305.5 1007.97 1296.92 1036.71L1299.01 1037.33Z" fill="#C5D7FF"/>
<path d="M1634 903.833V906.025C1621.78 903.848 1565.86 896.918 1539.66 946.346L1537.73 945.341C1564.32 895.197 1620.58 901.519 1634 903.833Z" fill="#C5D7FF"/>
<path d="M1556.86 969.713L1558.95 969.08C1552.52 948.199 1528.74 936.55 1504.81 942.568L1505.34 944.661C1525.33 939.643 1550.07 947.635 1556.86 969.713Z" fill="#C5D7FF"/>
<path d="M1565.72 1080C1581.22 1041.2 1624.46 1040.22 1634 1040.5V1038.34C1623.85 1038.06 1579.06 1039.26 1563.41 1080H1565.72Z" fill="#C5D7FF"/>
<path d="M62.0134 1043.89C98.6085 1019.05 126.439 1040.44 126.713 1040.66L128.075 1038.97C127.785 1038.74 98.7479 1016.34 60.7847 1042.1L62.0134 1043.89Z" fill="#C5D7FF"/>
<path d="M254.751 982.051L256.85 981.472C250.538 958.932 233.333 941.367 210.823 934.479C181.914 925.625 150.014 936.883 133.267 961.848L135.079 963.047C151.293 938.872 182.178 927.979 210.18 936.544C231.978 943.214 248.638 960.226 254.751 982.051Z" fill="#C5D7FF"/>
<path d="M19.7147 841.385C40.3902 837.071 65.9765 838.156 66.2314 838.162L66.3294 836.006C66.0658 835.996 40.2116 834.901 19.2681 839.272L19.7147 841.385Z" fill="#C5D7FF"/>
<path d="M0 956.107C10.9522 956.614 77.578 962.513 93.894 1030.48L91.7763 1030.98C75.8459 964.628 10.7975 958.779 0 958.269V956.107Z" fill="#C5D7FF"/>
<path d="M1314.23 1070.19H1316.41C1316.41 1047.24 1297.58 1028.58 1274.44 1028.58C1255.64 1028.58 1239.01 1041.1 1233.99 1059.04L1236.09 1059.62C1240.85 1042.61 1256.62 1030.74 1274.44 1030.74C1296.38 1030.74 1314.23 1048.43 1314.23 1070.19Z" fill="#C5D7FF"/>
<path d="M401.149 1068.2C382.905 1030.6 349.499 1045.35 348.088 1046L347.173 1044.04C347.539 1043.87 383.927 1027.72 403.112 1067.27L401.149 1068.2Z" fill="#C5D7FF"/>
<path d="M392.628 1052.94L390.57 1052.23C400.079 1024.85 423.842 1005.37 424.082 1005.18L425.461 1006.85C425.226 1007.04 401.933 1026.14 392.628 1052.94Z" fill="#C5D7FF"/>
<path d="M579.517 1061.41L577.691 1060.23C590.36 1040.98 613.981 1031.26 614.218 1031.16L615.044 1033.16C614.811 1033.25 591.804 1042.74 579.517 1061.41Z" fill="#C5D7FF"/>
<path d="M718.579 1065C711.149 1052.66 696.426 1042.33 696.28 1042.23L697.531 1040.46C698.149 1040.89 712.777 1051.15 720.452 1063.89L718.579 1065Z" fill="#C5D7FF"/>
<path d="M866.695 1055.25L864.793 1054.2C871.303 1042.61 882.539 1033.74 883.016 1033.37L884.364 1035.06C884.253 1035.15 872.992 1044.04 866.695 1055.25Z" fill="#C5D7FF"/>
<path d="M882.846 1068.91C871.998 1055.67 858.926 1052.16 842.867 1058.2L842.094 1056.18C858.9 1049.86 873.183 1053.68 884.534 1067.55L882.846 1068.91Z" fill="#C5D7FF"/>
<path d="M965.143 1061.63L963.093 1060.89C969.382 1043.62 978.483 1030.24 978.572 1030.11L980.376 1031.32C980.284 1031.45 971.332 1044.62 965.143 1061.63Z" fill="#C5D7FF"/>
<path d="M1164.23 999.22L1162.94 1000.97L1194.15 1023.53L1195.43 1021.78L1164.23 999.22Z" fill="#C5D7FF"/>
<path d="M367.157 215.189C399.784 182.841 399.784 130.396 367.157 98.0483C334.53 65.7008 281.631 65.7008 249.004 98.0483C216.377 130.396 216.377 182.841 249.004 215.189C281.631 247.536 334.53 247.536 367.157 215.189Z" fill="#FFBE0D"/>
<path d="M1362.48 152.509C1351.77 152.509 1341.83 155.751 1333.59 161.298C1324.8 130.544 1296.3 108.004 1262.46 108.004C1227.48 108.004 1198.2 132.088 1190.51 164.434C1187.15 163.661 1183.65 163.238 1180.05 163.238C1155.02 163.238 1134.66 183.03 1134 207.688H1413.79C1413.9 206.325 1413.97 204.952 1413.97 203.561C1413.97 175.366 1390.92 152.509 1362.48 152.509Z" fill="#8EA4E7"/>
<path d="M1575.46 191.596C1571 191.596 1566.92 193.229 1563.79 195.912C1562.26 181.818 1550.23 170.843 1535.61 170.843C1519.95 170.843 1507.25 183.429 1507.25 198.953C1507.25 201.99 1507.75 204.908 1508.65 207.649H1593.26C1592.41 198.644 1584.77 191.596 1575.46 191.596Z" fill="#8EA4E7"/>
<path d="M1294.18 185.991C1285.06 169.666 1267.66 165.525 1267.48 165.486L1267.97 163.38C1268.72 163.551 1286.49 167.75 1296.08 184.944L1294.18 185.991Z" fill="#6A7ED3"/>
<path d="M1286.3 194.724L1284.46 193.566C1289.68 185.421 1298.07 181.481 1309.35 181.863L1309.28 184.021C1298.66 183.684 1291.15 187.168 1286.3 194.724Z" fill="#6A7ED3"/>
<path d="M1390.89 193.24L1388.8 192.633C1395.26 170.77 1409.58 160.818 1410.18 160.408L1411.42 162.188C1411.27 162.285 1397.12 172.152 1390.89 193.24Z" fill="#6A7ED3"/>
<path d="M1559.73 204.04L1557.62 203.47C1558.94 198.679 1562.91 195.238 1563.08 195.096L1564.5 196.728C1564.46 196.759 1560.87 199.895 1559.73 204.04Z" fill="#6A7ED3"/>
<path d="M0 256.928H507.636C506.536 233.492 488.392 214.836 466.102 214.836C459.137 214.836 452.583 216.68 446.814 219.897C442.938 182.209 412.944 152.881 376.508 152.881C348.38 152.881 324.088 170.357 312.687 195.664C301.482 182.023 285.057 173.364 266.699 173.364C259.181 173.364 252.011 174.878 245.357 177.522C235.359 132.313 197.246 98.6472 151.72 98.6472C114.58 98.6472 82.3776 121.062 66.3382 153.861C52.0374 140.126 33.0983 131.758 12.3204 131.758C8.13078 131.758 4.01746 132.099 0 132.754L0 256.928Z" fill="#8EA4E7"/>
<path d="M90.9397 195.191C84.2991 170.288 65.9025 154.87 65.7151 154.716L66.9613 153.008C67.1508 153.163 86.0638 168.992 92.8961 194.599L90.9397 195.191Z" fill="#6A7ED3"/>
<path d="M68.2795 215.112L66.5845 213.92C78.7327 194.391 105.552 185.004 127.637 192.536L127.019 194.594C105.744 187.335 79.9484 196.348 68.2795 215.112Z" fill="#6A7ED3"/>
<path d="M305.251 228.774L303.222 228.63C304.307 211.458 311.7 195.348 311.774 195.188L313.595 196.145C313.523 196.303 306.305 212.043 305.251 228.774Z" fill="#6A7ED3"/>
<path d="M315.974 236.773C313.207 232.835 308.586 230.485 303.61 230.485C303.606 230.485 303.601 230.485 303.597 230.485C299.007 230.489 294.959 232.509 292.497 236.03L290.865 234.736C293.717 230.662 298.355 228.325 303.595 228.321C303.601 228.321 303.606 228.321 303.61 228.321C309.225 228.321 314.453 230.995 317.602 235.477L315.974 236.773Z" fill="#6A7ED3"/>
<path d="M217.538 201.889L215.812 200.746C226.122 183.125 244.277 176.757 245.046 176.494L245.669 178.552C245.484 178.617 227.438 184.961 217.538 201.889Z" fill="#6A7ED3"/>
<path d="M429.587 242.92L427.67 242.199C433.123 225.798 445.836 219.197 446.376 218.922L447.252 220.875C447.126 220.938 434.746 227.392 429.587 242.92Z" fill="#6A7ED3"/>
<path d="M775.464 256.928C774.194 239.153 759.285 225.115 741.034 225.115C733.287 225.115 726.158 227.675 720.396 231.943C720.418 231.269 720.448 230.597 720.448 229.919C720.448 194.73 691.677 166.206 656.184 166.206C626.82 166.206 602.075 185.738 594.399 212.408C588.501 209.427 581.843 207.712 574.771 207.712C550.841 207.712 531.442 226.945 531.442 250.67C531.442 252.8 531.651 254.878 531.952 256.923H775.464V256.928Z" fill="#8EA4E7"/>
<path d="M614.902 237.371C609.327 219.499 594.177 213.408 594.026 213.35L594.769 211.475C595.429 211.732 610.983 217.989 616.844 236.775L614.902 237.371Z" fill="#6A7ED3"/>
<path d="M710.433 248.275L708.524 247.586C711.875 238.464 719.387 231.498 719.703 231.206L721.084 232.684C721.01 232.753 713.611 239.622 710.433 248.275Z" fill="#6A7ED3"/>
<path d="M604.234 247.543L602.51 246.475C607.791 238.075 621.223 231.589 635.704 236.112L635.092 238.034C621.587 233.811 609.112 239.784 604.234 247.543Z" fill="#6A7ED3"/>
<path d="M1199.54 1030.34C1198.94 1035.75 1141.08 1036.46 1141.68 1031.05C1142.28 1025.64 1200.14 1024.93 1199.54 1030.34Z" fill="#5272C0"/>
<path d="M949.415 825.416C932.241 825.416 909.461 818.899 889.02 791.798L896.465 786.277C934.992 837.363 981.104 808.024 983.047 806.749L988.2 814.424C987.638 814.795 974.208 823.55 955.236 825.165C953.382 825.325 951.437 825.416 949.415 825.416Z" fill="#43416D"/>
<path d="M898.084 795.738C890.748 801.168 884.323 802.959 867.663 785.627C852.713 770.958 880.428 749.57 896.291 770.768C896.291 770.768 893.149 761.333 897.731 761.106C902.312 760.88 914.092 785.337 898.084 795.738Z" fill="white"/>
<path d="M893.314 785.11C887.735 776.347 895.641 770.103 895.722 770.04L896.863 771.496C896.589 771.708 890.216 776.792 894.885 784.128L893.314 785.11Z" fill="#C5D7FF"/>
<path d="M917.077 646.534H848.582L803 759.324H862.478L833.469 847.735L946.33 711.742L887.341 711.744L917.077 646.534Z" fill="#FFBE0D"/>
<path d="M886.617 711.414L877.669 730L879.169 730.71L888.117 712.124L886.617 711.414Z" fill="#D28600"/>
<path d="M879.325 758.501H862.475V760.15H879.325V758.501Z" fill="#D28600"/>
<path d="M902.582 766.014C902.582 766.014 899.846 759.638 896.495 760.798C893.41 761.817 897.452 772.222 897.452 772.222L902.582 766.014Z" fill="white"/>
<path d="M1380.64 708.597C1378.17 708.597 1376.55 708.489 1376.27 708.467L1376.94 699.274H1376.94C1384.99 699.836 1407.07 698.847 1412.73 687.608C1415.49 682.128 1413.11 677.4 1409 670.136C1404.64 662.418 1399.2 652.815 1406.68 641.935L1414.36 647.125C1410.33 653.001 1412.65 657.746 1417.11 665.628C1421.14 672.743 1426.14 681.601 1421.04 691.727C1413.39 706.927 1390.37 708.597 1380.64 708.597Z" fill="#43416D"/>
<path d="M1408.37 646.978C1395.87 640.427 1395.21 629.835 1407.4 614.46C1420.47 600.96 1437.66 622.428 1435.96 631.614C1433.78 641.738 1417.8 651.581 1408.37 646.978Z" fill="white"/>
<path d="M1402.36 389.483L1404.51 376H1407.32L1409.31 389.375L1402.36 389.483Z" fill="#43416D"/>
<path d="M1408.14 399.749H1402.56V612.982H1408.14V399.749Z" fill="white"/>
<path d="M1419.54 637.261C1409.15 637.261 1400.7 628.882 1400.7 618.585V589.054H1410V618.585C1410 623.8 1414.28 628.042 1419.54 628.042C1424.8 628.042 1429.08 623.8 1429.08 618.585V610.986H1438.38V618.585C1438.38 628.882 1429.93 637.261 1419.54 637.261Z" fill="#43416D"/>
<path d="M1194.5 492.415C1194.5 492.415 1250.64 389.329 1405.35 389.329C1560.06 389.329 1616.2 492.415 1616.2 492.415C1590.78 485.225 1569.76 484.393 1554.94 492.415C1521.31 484.851 1491.75 484.391 1467.07 492.415C1426.69 484.793 1385.54 484.793 1343.64 492.415C1320.69 484.875 1291.56 484.687 1255.76 492.415C1242.36 484.59 1221.81 484.819 1194.5 492.415Z" fill="#FFBE0D"/>
<path d="M1554.07 492.746C1553.97 492.489 1543.88 466.793 1520.57 441.446C1499.1 418.092 1461.68 390.254 1405.35 390.254C1348.99 390.254 1311.56 418.12 1290.08 441.496C1266.79 466.845 1256.73 492.491 1256.63 492.746L1254.9 492.087C1255 491.828 1265.19 465.856 1288.71 440.253C1310.44 416.604 1348.31 388.409 1405.35 388.409C1462.39 388.409 1500.26 416.601 1521.99 440.253C1545.52 465.858 1555.71 491.828 1555.81 492.087L1554.07 492.746Z" fill="#D28600"/>
<path d="M1466.15 492.56C1465.98 491.536 1449.33 390.252 1405.35 390.252C1361.37 390.252 1344.72 491.536 1344.55 492.56L1342.72 492.273C1342.76 492.014 1346.95 466.113 1356.64 440.549C1369.76 405.951 1386.14 388.409 1405.35 388.409C1424.56 388.409 1440.95 405.953 1454.06 440.549C1463.75 466.113 1467.94 492.014 1467.99 492.273L1466.15 492.56Z" fill="#D28600"/>
<path d="M1412.16 611.107C1412.16 611.107 1403.32 621.845 1411.75 628.145C1420.18 634.446 1428.61 621.158 1428.61 621.158L1412.16 611.107Z" fill="white"/>
<path d="M1186.7 935.131H1177.4V994.058H1186.7V935.131Z" fill="#43416D"/>
<path d="M1167.92 991.788L1196.53 994.345C1196.53 994.345 1194.79 1024.94 1190.7 1028.8C1186.62 1032.65 1150.54 1032.77 1148.21 1029.89C1145.88 1027.01 1144.7 1014.4 1168.28 1013.01L1167.92 991.788Z" fill="#FFBE0D"/>
<path d="M1350.87 1006.72C1350.27 1012.13 1292.41 1012.84 1293 1007.43C1293.6 1002.02 1351.47 1001.31 1350.87 1006.72Z" fill="#5272C0"/>
<path d="M1178.47 1020.34C1175.1 1014.42 1168.3 1013.93 1168.22 1013.93L1168.33 1012.09C1168.65 1012.12 1176.21 1012.61 1180.09 1019.43L1178.47 1020.34Z" fill="#D28600"/>
<path d="M1279.58 915.924L1270.92 919.275L1292.52 974.169L1301.19 970.818L1279.58 915.924Z" fill="#43416D"/>
<path d="M1309.91 965.166L1283.15 975.519C1283.15 975.519 1293.42 1004.43 1298.43 1007C1303.43 1009.57 1338.12 999.732 1339.55 996.32C1340.98 992.907 1338.56 980.472 1315.53 985.643L1309.91 965.166Z" fill="#FFBE0D"/>
<path d="M1307.8 995.497L1306 995.073C1307.81 987.455 1314.92 984.88 1315.22 984.774L1315.85 986.511C1315.78 986.535 1309.38 988.876 1307.8 995.497Z" fill="#D28600"/>
<path d="M1372.18 688.209C1379.48 680.029 1383.48 668.991 1382.36 657.26C1380.2 634.792 1360.08 618.313 1337.42 620.452C1333.84 620.788 1330.42 621.573 1327.19 622.737C1318.67 588.332 1285.78 564.406 1249.15 567.864C1234.42 569.253 1221.14 574.891 1210.4 583.416C1199.09 562.736 1176.09 549.655 1150.98 552.025C1119.94 554.954 1096.58 580.461 1095.81 610.6C1086.62 603.902 1075.01 600.392 1062.76 601.547C1036.3 604.046 1016.9 627.331 1019.42 653.558C1019.62 655.681 1019.98 657.753 1020.45 659.774C1019.55 659.822 1018.66 659.876 1017.76 659.96C981.921 663.343 955.64 694.885 959.051 730.411C960.866 749.306 970.716 765.521 984.932 776.056C975.265 782.292 969.326 793.496 970.494 805.667C971.98 821.148 984.452 832.941 999.535 834.25C997.81 842.087 997.25 850.312 998.058 858.723C1002.25 902.379 1041.34 934.399 1085.38 930.241C1094.98 929.334 1104.02 926.78 1112.26 922.89C1125.06 944.054 1149.34 957.221 1175.77 954.727C1198.09 952.621 1216.77 939.825 1227.19 921.944C1237.32 929.64 1250.3 933.712 1264.01 932.418C1287.67 930.185 1306.15 912.674 1310.49 890.661C1316.09 891.369 1321.85 891.499 1327.71 890.946C1370.34 886.922 1401.61 849.396 1397.55 807.127C1396.39 795.027 1392.44 783.858 1386.43 774.164C1399.23 763.992 1406.79 747.831 1405.12 730.424C1403.22 710.601 1389.87 694.6 1372.18 688.209Z" fill="white"/>
<path d="M1066.81 674.568C1047.19 658.465 1020.8 660.671 1020.53 660.692L1020.36 658.856C1020.63 658.835 1047.77 656.545 1068 673.147L1066.81 674.568Z" fill="#C5D7FF"/>
<path d="M1111.39 923.238C1106.4 911.175 1104.07 899.063 1104.45 887.25L1106.31 887.311C1105.94 898.863 1108.23 910.717 1113.11 922.54L1111.39 923.238Z" fill="#C5D7FF"/>
<path d="M1103.61 888.071C1095.7 888.071 1088.24 884.738 1082.54 878.651L1083.9 877.399C1089.36 883.231 1096.59 886.302 1104.1 886.224C1112.83 886.062 1121.4 881.649 1128.22 873.798L1129.63 875.001C1122.46 883.254 1113.41 887.896 1104.14 888.067C1103.96 888.069 1103.78 888.071 1103.61 888.071Z" fill="#C5D7FF"/>
<path d="M1224.33 923.227C1216.66 923.227 1209.36 920.076 1203.68 914.278L1205.01 912.993C1210.6 918.7 1217.83 921.668 1225.41 921.363C1234.14 921.005 1242.6 916.402 1249.24 908.401L1250.68 909.572C1243.7 917.985 1234.75 922.826 1225.49 923.206C1225.1 923.219 1224.72 923.227 1224.33 923.227Z" fill="#C5D7FF"/>
<path d="M993.339 801.937C986.354 793.528 983.285 783.892 984.694 774.805C985.923 766.865 990.553 759.94 997.729 755.309L998.742 756.853C992.017 761.197 987.681 767.671 986.531 775.086C985.204 783.648 988.132 792.768 994.773 800.768L993.339 801.937Z" fill="#C5D7FF"/>
<path d="M1062.88 686.712C1062.81 676.534 1068.95 669.453 1081.16 665.669L1081.71 667.427C1070.22 670.991 1064.67 677.296 1064.74 686.697L1062.88 686.712Z" fill="#C5D7FF"/>
<path d="M1335.23 689.623L1334.69 687.859C1354.14 682.042 1372.27 687.273 1372.45 687.325L1371.92 689.092C1371.74 689.04 1354.12 683.971 1335.23 689.623Z" fill="#C5D7FF"/>
<path d="M1339.75 709.925L1337.92 709.608C1342.51 683.623 1317.3 678.352 1316.22 678.141L1316.58 676.333C1316.86 676.389 1344.64 682.186 1339.75 709.925Z" fill="#C5D7FF"/>
<path d="M1310.31 891.566C1295.61 888.799 1289.13 883.46 1288.86 883.233L1290.07 881.827C1290.13 881.879 1296.49 887.088 1310.66 889.756L1310.31 891.566Z" fill="#C5D7FF"/>
<path d="M1385.66 774.686C1385.6 774.604 1379.83 766.338 1373.5 761.379L1374.65 759.931C1381.2 765.068 1386.95 773.295 1387.19 773.643L1385.66 774.686Z" fill="#C5D7FF"/>
<path d="M1190.72 610.416L1188.96 609.822C1195 592.24 1209.29 583.023 1209.89 582.639L1210.9 584.192C1210.75 584.282 1196.54 593.464 1190.72 610.416Z" fill="#C5D7FF"/>
<path d="M1167.57 626.867L1165.86 626.15C1169.61 617.326 1178.5 610.997 1189.06 609.632C1200.82 608.114 1212.09 613.049 1220 623.18L1218.53 624.309C1211.04 614.708 1200.37 610.027 1189.3 611.462C1179.39 612.74 1171.07 618.644 1167.57 626.867Z" fill="#C5D7FF"/>
<path d="M1329.36 639.626C1328.91 633.755 1326.31 623.061 1326.29 622.955L1328.09 622.521C1328.2 622.964 1330.76 633.465 1331.22 639.488L1329.36 639.626Z" fill="#C5D7FF"/>
<path d="M1000.29 835.188C999.821 835.188 999.546 835.175 999.49 835.171L999.581 833.33C999.664 833.328 1007.87 833.669 1018.73 829.846L1019.35 831.581C1009.98 834.883 1002.66 835.188 1000.29 835.188Z" fill="#C5D7FF"/>
<path d="M1176.06 815.301C1162.01 815.301 1147.75 812.72 1133.44 807.568L1134.08 805.836C1154.98 813.357 1175.78 815.324 1195.89 811.678C1216 808.034 1234.75 798.9 1251.61 784.536L1252.83 785.933C1235.71 800.516 1216.66 809.788 1196.22 813.495C1189.57 814.7 1182.84 815.301 1176.06 815.301Z" fill="#C5D7FF"/>
<path d="M1166.21 716.965C1168.04 726.933 1161.38 736.489 1151.33 738.312C1141.28 740.135 1131.64 733.53 1129.8 723.563C1127.96 713.595 1134.62 704.039 1144.67 702.216C1154.73 700.393 1164.37 706.996 1166.21 716.965Z" fill="#C5D7FF"/>
<path d="M1159.56 718.168C1160.73 724.497 1156.5 730.566 1150.11 731.724C1143.73 732.882 1137.61 728.687 1136.44 722.358C1135.27 716.027 1139.5 709.96 1145.89 708.802C1152.27 707.644 1158.4 711.839 1159.56 718.168Z" fill="#43416D"/>
<path d="M1226.26 706.08C1228.1 716.049 1221.44 725.605 1211.38 727.428C1201.33 729.249 1191.69 722.645 1189.85 712.679C1188.02 702.711 1194.68 693.155 1204.73 691.332C1214.78 689.509 1224.42 696.114 1226.26 706.08Z" fill="#C5D7FF"/>
<path d="M1219.62 707.286C1220.78 713.614 1216.55 719.684 1210.17 720.842C1203.79 722 1197.66 717.805 1196.5 711.476C1195.33 705.147 1199.56 699.078 1205.94 697.92C1212.33 696.762 1218.45 700.955 1219.62 707.286Z" fill="#43416D"/>
<path d="M1178.97 758.828C1171.43 758.828 1164.5 756.238 1159.48 751.445L1160.77 750.116C1166.36 755.458 1174.55 757.858 1183.23 756.698C1192.95 755.402 1201.64 749.816 1206.48 741.761L1208.08 742.705C1202.95 751.239 1193.76 757.153 1183.47 758.525C1181.96 758.726 1180.46 758.828 1178.97 758.828Z" fill="#43416D"/>
<path d="M1211.03 743.58C1207.54 743.58 1204.83 741.383 1203.71 737.465L1205.5 736.964C1206.57 740.731 1209.38 742.409 1212.99 741.47L1213.46 743.252C1212.62 743.472 1211.81 743.58 1211.03 743.58Z" fill="#43416D"/>
<path d="M1155.03 753.84L1154.84 752.006C1158.56 751.622 1160.57 749.064 1160.24 745.165L1162.09 745.008C1162.52 749.963 1159.81 753.348 1155.03 753.84Z" fill="#43416D"/>
<path d="M1128.4 744.85C1128.82 747.144 1125.55 749.658 1121.08 750.468C1116.61 751.278 1112.65 750.075 1112.23 747.781C1111.8 745.487 1115.08 742.973 1119.55 742.163C1124.02 741.355 1127.98 742.558 1128.4 744.85Z" fill="#C5D7FF"/>
<path d="M1251.34 722.572C1251.76 724.866 1248.48 727.38 1244.01 728.19C1239.55 729 1235.59 727.797 1235.16 725.503C1234.74 723.209 1238.02 720.695 1242.48 719.885C1246.95 719.077 1250.91 720.278 1251.34 722.572Z" fill="#C5D7FF"/>
</g>
</g>
<defs>
<clipPath id="clip0_33_715">
<rect width="1634" height="1080" fill="white"/>
</clipPath>
<clipPath id="clip1_33_715">
<rect width="1634" height="1080" fill="white"/>
</clipPath>
</defs>
</svg>
