<svg width="20" height="20" viewBox="0 0 20 20" fill="none" xmlns="http://www.w3.org/2000/svg">
<path d="M16.6667 8.33329C16.6667 12.4941 12.0508 16.8275 10.5008 18.1658C10.3564 18.2744 10.1807 18.3331 10 18.3331C9.81934 18.3331 9.64357 18.2744 9.49917 18.1658C7.94917 16.8275 3.33334 12.4941 3.33334 8.33329C3.33334 6.56518 4.03571 4.86949 5.28596 3.61925C6.5362 2.36901 8.23189 1.66663 10 1.66663C11.7681 1.66663 13.4638 2.36901 14.714 3.61925C15.9643 4.86949 16.6667 6.56518 16.6667 8.33329Z" stroke="white" stroke-width="2" stroke-linecap="round" stroke-linejoin="round"/>
<path d="M10 10.8334C11.3807 10.8334 12.5 9.71409 12.5 8.33337C12.5 6.95266 11.3807 5.83337 10 5.83337C8.61929 5.83337 7.5 6.95266 7.5 8.33337C7.5 9.71409 8.61929 10.8334 10 10.8334Z" stroke="white" stroke-width="2" stroke-linecap="round" stroke-linejoin="round"/>
</svg>
