<svg width="22" height="21" viewBox="0 0 22 21" fill="none" xmlns="http://www.w3.org/2000/svg">
<path d="M4.00001 13.0367C3.34992 12.3725 2.8595 11.5691 2.56591 10.6873C2.27232 9.8055 2.18325 8.86845 2.30545 7.94712C2.42764 7.0258 2.75791 6.14436 3.27121 5.36958C3.78452 4.59479 4.46742 3.94698 5.26817 3.47522C6.06893 3.00345 6.96654 2.72009 7.89303 2.64661C8.81951 2.57314 9.75057 2.71146 10.6157 3.05111C11.4808 3.39076 12.2573 3.92283 12.8863 4.60702C13.5153 5.2912 13.9804 6.10956 14.2463 7.00011H15.8125C16.6573 7.00001 17.4798 7.27164 18.1584 7.77487C18.837 8.2781 19.3357 8.98624 19.5809 9.79469C19.8262 10.6031 19.8049 11.469 19.5202 12.2644C19.2355 13.0598 18.7025 13.7426 18 14.2119" stroke="#5088D0" stroke-width="2" stroke-linecap="round" stroke-linejoin="round"/>
<path d="M8.55 19.25L11.175 13.125" stroke="#5088D0" stroke-width="2" stroke-linecap="round" stroke-linejoin="round"/>
<path d="M8.375 11.375L5.75 17.5" stroke="#5088D0" stroke-width="2" stroke-linecap="round" stroke-linejoin="round"/>
<path d="M15.375 11.375L12.75 17.5" stroke="#5088D0" stroke-width="2" stroke-linecap="round" stroke-linejoin="round"/>
</svg>
